<svg width="350" height="350" viewBox="0 0 350 350" fill="none" xmlns="http://www.w3.org/2000/svg">
<g clip-path="url(#clip0_73_62)">
<path d="M24.826 91.396C32.3125 91.2776 39.5861 95.5104 45.383 100.208C46.4431 101.067 47.4557 101.976 48.4177 102.93C53.7688 108.233 57.5526 114.921 59.3113 122.269C59.7586 124.138 60.0711 126.036 60.2488 127.947L61.263 138.941C61.9263 146.131 63.8626 153.151 66.9832 159.675C67.8426 161.473 68.8858 163.193 70.2186 164.681C70.4944 164.989 70.7747 165.283 71.0596 165.567C77.3543 171.806 86.0511 172.032 94.8888 167.573C98.4368 165.783 101.597 163.322 104.376 160.496C116.671 147.992 128.231 134.797 138.999 120.979L158.927 95.4026L172.329 78.2801C185.852 61.0057 195.932 49.0725 211.531 33.6124C211.531 33.6124 227.045 17.8882 235.077 25.8482C241.704 32.4161 236.396 44.0927 231.715 50.2537L210.177 79.3489C196.339 97.0392 182.979 115.089 170.108 133.481L167.401 137.35C165.296 140.359 165.664 144.428 168.276 147.018C171.366 150.08 178.111 148.518 181.478 145.756L183.044 144.405C186.175 141.704 189.204 138.886 192.048 135.891C195.048 132.731 197.928 129.461 200.696 126.098L216.431 106.976C233.545 86.1764 246.564 71.8686 266.228 53.4161C271.422 47.6727 284.358 39.8964 290.89 46.3701C297.081 52.5052 290.176 66.0341 284.983 71.776C256.12 110.729 236.015 136.651 200.898 170.714C196.56 174.923 194.798 182.348 199.091 186.602C203.334 190.808 214.738 184.533 218.983 180.326L243.697 156.529L291.985 109.77C297.47 104.334 310.123 97.2381 316.643 103.698C316.666 103.721 316.688 103.744 316.711 103.766C323.695 110.688 315.251 123.714 309.748 129.168L262.019 178.663L222.739 216.308C218.955 219.942 216.193 228.633 219.92 232.325C223.427 235.8 230.861 234.2 234.601 230.971L283.895 189.327C289.398 183.874 302.467 177.226 308.621 183.324C315.223 189.868 306.257 204.168 300.754 209.622L285.833 224.795C266.195 244.6 246.058 263.91 225.44 282.707C215.418 291.844 205.005 300.551 194.297 308.888C178.319 321.326 160.189 330.779 140.793 336.782C125.694 341.453 109.548 341.649 94.3389 337.342C84.7934 334.64 75.8301 330.223 67.8931 324.311C62.8087 320.525 57.1252 315.621 51.7512 310.295C45.3462 303.947 39.3809 297 35.3871 290.617C29.3161 280.916 25.3989 270.044 23.8977 258.725L22.6277 249.147C21.8158 243.018 21.7177 236.817 22.3397 230.666L27.1438 183.118L27.3767 167.75C27.6754 148.048 21.8495 128.734 10.6924 112.425C8.8924 109.795 7.77409 106.732 7.67911 103.557C7.63316 102.055 7.81852 100.666 8.33784 99.725C11.44 94.103 18.3628 91.5008 24.8291 91.399L24.826 91.396Z" fill="#FFB700"/>
<path d="M309.414 177.839L310.653 179.372C310.942 178.835 310.373 178.288 309.414 177.839Z" fill="#FFCB01"/>
<path d="M15.1437 107.642C18.6993 115.505 22.8692 124.677 24.706 128.504L25.0859 129.294C31.9429 143.602 36.1036 159.022 37.3429 174.81L38.5102 189.575L38.8534 212.813C39.6944 224.136 39.9748 232.626 39.8936 243.985C39.866 247.204 40.2015 250.654 40.3011 252.619C41.1789 269.339 52.6668 289.816 80.8451 286.56C84.1112 286.122 87.3221 285.341 90.3982 284.212C93.4744 283.1 96.4325 281.657 99.2099 279.891C100.141 279.308 101.01 279.326 101.58 279.891C102.05 280.357 102.321 281.2 102.258 282.375C102.113 286.032 100.938 289.081 97.3287 292.658C96.8124 293.169 96.2349 293.689 95.6099 294.235C87.3865 299.963 86.3111 309.691 93.6107 314.631L93.6199 314.64C106.067 322.207 120.767 325.299 135.25 323.426L135.702 323.373C141.382 322.638 146.983 321.392 152.428 319.67L153.206 319.419C163.202 316.255 172.618 311.547 181.213 305.38L181.648 305.075C197.017 294.057 211.753 282.179 225.775 269.52L292.706 209.086C297.754 204.531 302.603 198.83 305.642 193.917C307.117 191.541 308.157 189.344 308.6 187.56C310.347 180.487 310.092 181.759 309.414 177.842C307.56 176.937 304.23 176.38 303.081 176.802L284.31 185.776L283.821 186.009L228.278 231.157L222.552 232.96C221.755 233.21 220.87 233.013 220.235 232.457C211.099 224.442 215.35 215.406 225.573 205.275C226.784 204.074 228.088 202.855 229.462 201.617C236.926 195.244 243.982 188.412 250.584 181.15C262.046 168.555 285.295 143.559 303.232 124.132C304.861 122.375 306.661 120.142 308.37 117.713C313.77 110.012 318.195 100.285 312.83 97.1014C312.64 96.9845 312.839 96.6444 312.857 96.3939C305.023 100.678 297.181 104.973 289.356 109.268C286.452 112.074 283.241 115.132 279.812 118.385C250.621 146.096 206.077 186.959 206.077 186.959L199.093 186.601C191.757 179.635 193.656 173.987 200.251 164.942C204.493 159.124 247.58 110.541 273.977 77.4601C277.677 72.825 280.707 68.621 283.132 64.8908C289.898 54.4727 292.016 47.6058 291.129 44.5572C290.767 43.3563 290.459 42.3512 290.16 41.5177C288.305 36.0764 287.763 37.6903 287.89 39.0703L283.285 40.3517L273.036 43.212C247.78 71.9004 197.249 129.277 197.249 129.277L180.658 145.719L176.171 146.615L169.224 146.974L168.274 147.019C160.168 138.986 164.899 132.702 173.746 120.241C183.281 106.792 203.743 82.1924 212.599 69.9373C223.463 54.9024 232.085 44.1898 234.662 34.3183C235.313 31.8618 235.648 28.6614 235.475 26.2489C236.217 19.3107 229.568 27.8173 230.3 20.8699C223.181 22.7434 218.043 26.7424 211.765 29.504C210.065 30.257 208.291 30.9205 206.375 31.423C199.309 40.7738 190.752 52.124 181.634 64.1909C155.318 99.0569 121.541 135.884 109.69 151.574C108.93 152.577 107.681 154.352 107.202 155.491C105.728 158.978 108.749 166.85 110.107 170.489L117.19 185.883C122.111 196.049 124.798 207.982 124.671 219.709C124.525 231.435 121.578 242.965 115.199 252.297C111.933 255.946 107.436 255.435 109.192 249.733C109.192 249.733 109.409 248.909 109.771 247.437C110.486 244.595 110.992 240.382 111.092 235.89C111.517 216.373 107.102 202.405 97.6489 188.392C97.6305 188.374 97.6136 188.356 97.6121 188.339L97.5217 188.213C94.0565 183.094 89.6522 178.656 84.5309 175.143L72.4455 166.823L68.6464 162.681C65.5886 156.549 65.4799 150.812 62.9736 140.384L61.3268 119.226C60.8841 113.425 57.9351 108.083 53.2306 104.586L37.2556 92.6803L25.6681 90.5912C25.5961 90.5912 25.5317 90.6004 25.4597 90.6004C16.9652 91.0391 11.6647 99.9511 15.1376 107.644L15.1437 107.642Z" fill="#FFCE47"/>
<path d="M206.26 248.612C207.334 223.08 192.266 196.466 184.201 184.873C172.514 168.074 161.002 159.35 156.618 156.476C150.009 152.141 143.662 150.128 136.454 150.071C133.458 150.046 131.471 150.45 130.017 152.421C128.43 154.571 128.159 156.93 128.404 158.987C128.738 161.787 130.166 164.348 132.215 166.303L145.831 177.602C157.338 188.049 165.461 198.405 173.587 211.414C178.469 219.232 180.709 224.365 188.244 241.976C189.614 245.177 193.361 254.585 198.727 255.595H198.838C202.686 255.561 206.1 252.425 206.261 248.614L206.26 248.612Z" fill="#FFDC67"/>
<path d="M102.507 295.835C102.202 294.405 102.522 292.843 103.466 291.15C105.415 287.658 109.12 285.49 113.133 285.142C115.68 284.922 118.335 284.907 121.043 284.997C137.876 285.555 154.565 281.511 169.29 273.41C169.399 273.349 169.521 273.306 169.619 273.229C176.351 267.877 182.981 269.505 185.685 274.661C186.146 278.991 185.075 282.693 182.681 286.896C180.046 291.52 175.294 295.15 170.75 298.096C155.227 308.157 132.426 310.151 114.45 305.616C106.844 303.697 103.222 299.195 102.507 295.835Z" fill="#FFDC67"/>
<path d="M105.091 245.689C115.982 231.607 110.218 209.441 102.706 196.249C86.5792 167.931 62.9324 163.41 56.1904 162.484C51.5992 161.854 48.448 165.139 49.9615 169.481C51.4705 173.813 53.4635 181.17 54.4179 184.185C60.5564 203.585 63.6891 222.627 65.9074 242.263C66.0989 243.958 66.2735 245.547 66.4252 246.984C67.1283 253.632 72.3093 258.378 79.0161 259.09C89.0763 260.014 100.921 251.078 105.09 245.689H105.091Z" fill="#FFDC67"/>
<path d="M54.8482 114.579C56.6666 122.561 55.631 129.787 54.8467 137.933C54.8436 137.96 54.8405 137.989 54.839 138.016C54.4576 141.929 49.9154 143.936 46.729 141.596C46.5099 141.435 46.2878 141.267 46.0626 141.088C43.3572 138.941 41.188 136.191 39.6867 133.097C37.686 128.969 34.5578 124.622 31.569 121.513C24.565 114.227 18.8417 108.107 20.2986 98.8354C20.9359 94.7742 24.3659 91.5297 28.5113 91.4721C31.4878 91.4311 35.2165 92.5287 40.131 95.1962C43.3327 96.9346 46.2326 99.2165 48.5489 102.013C50.7963 104.726 53.6747 109.427 54.8482 114.579Z" fill="#FFDC67"/>
<path d="M211.769 29.5025C200.867 41.6316 191.225 52.8391 181.635 64.1879C160.395 89.3615 139.445 115.272 105.784 153.598C104.183 155.418 98.4073 158.527 100.842 158.429C100.995 158.419 103.486 157.143 106.888 157.979C109.278 158.567 113.633 158.908 119.746 152.079C127.12 143.838 136.675 134.699 145.111 123.464C162.575 100.211 177.475 79.6449 200.026 54.8554C202.867 51.7354 206.114 47.7273 209.416 43.6676C215.114 36.6382 224.26 30.4955 232.488 33.4423C232.96 33.6109 234.121 34.37 234.663 34.3168C235.314 31.8603 235.595 29.4494 235.423 27.0369C236.165 20.0972 229.57 27.8173 230.303 20.8684C223.184 22.7419 218.046 26.7409 211.769 29.5025Z" fill="#FFDC67"/>
<path d="M224.623 87.0493C218.662 93.602 212.691 100.147 206.739 106.71L194.744 121.287C192.048 124.568 189.263 127.724 186.458 130.683C183.988 133.273 179.455 138.285 178.126 139.173C177.375 139.774 176.634 140.24 176.018 140.58C175.719 140.75 175.394 140.661 175.195 140.463C172.464 142.13 169.26 143.565 167.787 145.833C168.954 145.735 168.98 146.299 169.225 146.972C169.36 147.393 169.568 147.833 170.157 148.2C170.175 148.219 170.193 148.219 170.21 148.237C177.88 152.826 187.841 147.617 193.92 140.769C207.877 125.053 220.84 109.032 234.989 93.4866C244.181 83.3024 252.764 73.0194 263.005 63.57C265.891 60.907 268.035 58.944 271.852 56.7562C277.461 53.5285 285.105 53.3827 283.133 64.8878C291.674 50.9839 292.017 47.6029 291.13 44.5543C290.768 43.3533 290.461 42.3483 290.162 41.5148C288.081 41.1929 285.774 41.0047 285.64 40.6175C284.653 40.5553 283.893 40.4657 283.288 40.3488C280.782 39.8918 280.61 39.0932 276.802 38.7972C276.521 38.7698 273.554 40.742 273.246 40.7238C272.929 41.0563 271.465 40.8225 271.147 41.1534C256.611 56.0442 239.008 72.2542 224.624 87.0463L224.623 87.0493Z" fill="#FFDC67"/>
<path d="M279.813 118.382C285.313 116.176 293.474 113.219 298.855 111.685C300.873 111.102 303.08 111.3 304.844 112.438C306.273 113.352 307.494 114.904 308.372 117.71C313.772 110.009 318.196 100.282 312.831 97.0984C312.641 96.9815 312.84 96.6414 312.859 96.3909C305.024 100.675 297.182 104.97 289.357 109.265C286.453 112.071 283.242 115.129 279.813 118.382Z" fill="#FFDC67"/>
<path d="M284.31 185.773C279.751 190.471 275.064 195.294 272.278 198.343C286.877 189.428 295.703 183.696 302.003 188.284C303.434 189.326 304.762 190.874 305.64 193.914C307.115 191.538 308.156 189.341 308.598 187.557C310.345 180.484 310.09 181.756 309.412 177.839C307.558 176.934 304.228 176.377 303.079 176.799L284.308 185.773H284.31Z" fill="#FFDC67"/>
<path d="M1.60297 96.0689C0.454022 98.158 -0.0790893 100.748 0.0112945 103.778C0.138445 108.297 1.65812 112.78 4.36197 116.733C14.6657 131.714 19.9754 149.51 19.7043 167.638L19.4683 182.682L14.701 229.902C14.0223 236.635 14.1311 243.431 15.0181 250.137L16.285 259.712C17.941 272.183 22.1737 283.926 28.8683 294.631C33.9711 302.772 41.1712 310.571 46.3185 315.672C51.7921 321.097 57.8156 326.314 63.2892 330.393C74.0908 338.444 86.4749 343.885 99.8992 346.468C115.295 349.445 131.216 347.974 146.107 343.079C165.311 336.759 183.097 327.273 199.035 314.866C210.226 306.161 220.854 297.223 230.633 288.302C251.266 269.502 271.675 249.923 291.332 230.101L306.223 214.967C313.605 207.616 325.192 188.977 314.057 177.941C303.735 167.711 286.105 176.561 278.705 183.714L229.629 225.179C229.602 225.206 229.574 225.214 229.557 225.232C229.078 225.654 228.408 225.994 227.711 226.235C226.852 226.531 226.029 225.698 226.328 224.846C226.754 223.654 227.386 222.435 228.074 221.772L267.362 184.127L267.57 183.921L315.243 134.488C323.953 125.819 332.936 109.098 322.145 98.3858L322.073 98.3144C311.96 88.2911 295.243 95.8048 286.596 104.357L238.354 151.074L213.64 174.868L213.559 174.948C210.184 178.185 207.833 179.942 206.16 180.632C205.419 180.938 204.622 180.74 204.115 180.238C203.789 179.914 203.591 179.466 203.582 178.956C203.591 178.445 203.726 177.487 204.559 176.661C241.024 141.294 263.096 114.165 290.968 76.5567C297.417 69.2328 306.871 51.4362 296.332 40.9924C293.112 37.8011 288.852 36.1963 283.985 36.3223C280.357 36.421 276.639 37.505 273.157 39.1462C272.525 39.4332 271.909 39.7383 271.321 40.0693C267.105 42.2935 263.378 45.251 260.746 48.0931C242.038 65.665 228.868 79.8467 210.486 102.171L206.75 106.716L194.755 121.293C192.059 124.574 189.274 127.73 186.469 130.689C183.999 133.279 179.466 138.291 178.136 139.179C177.386 139.78 176.644 140.246 176.028 140.586C175.73 140.756 175.405 140.667 175.206 140.469C175.043 140.29 174.97 140.003 175.106 139.725L176.156 137.556C188.892 119.357 202.571 101.516 216.248 84.0158C216.301 83.9626 216.338 83.908 216.375 83.8548L237.886 54.79C245.846 44.3006 249.745 29.6254 240.518 20.4812C237.532 17.5222 233.689 15.9721 229.392 15.9994C218.726 16.0616 208.188 26.1472 206.09 28.2636C189.925 44.2839 179.63 56.5663 166.269 73.6266L152.863 90.7673L132.934 116.345C122.396 129.874 110.934 142.953 98.8943 155.19C96.506 157.61 93.9998 159.502 91.4215 160.803C85.1253 163.976 80.1052 163.77 76.4959 160.193C76.3244 160.023 76.1528 159.834 75.9705 159.637C74.3237 157.808 72.9848 154.742 71.511 149.749C69.9822 144.594 69.0232 139.305 68.5161 133.961L67.9003 127.255C67.6919 125.005 67.3212 122.737 66.7881 120.521C64.7077 111.825 60.2391 103.882 53.8525 97.5523C52.7127 96.4227 51.5102 95.3372 50.2525 94.3245C41.4776 87.2056 32.8743 83.6651 24.7152 83.7911C14.557 83.9611 5.71007 88.6585 1.61216 96.0735L1.60297 96.0689ZM24.824 91.3974C32.3136 91.2714 39.5872 95.5042 45.3855 100.211C46.4441 101.062 47.4567 101.976 48.4157 102.927C53.7713 108.234 57.5521 114.922 59.3154 122.264C59.7581 124.138 60.0752 126.03 60.256 127.949L61.2686 138.941C61.9564 146.453 64.0276 153.76 67.4024 160.528C67.9539 161.649 68.6142 162.716 69.3832 163.694C69.9163 164.366 70.477 164.993 71.0561 165.567C77.2619 171.717 85.8009 172.023 94.5038 167.773C98.0594 166.026 101.234 163.613 104.039 160.835C115.464 149.512 126.147 137.472 136.034 124.786L158.931 95.407L172.337 78.2845C185.851 61.0177 195.928 49.0754 211.532 33.6108C211.532 33.6108 227.046 17.8941 235.08 25.8557C241.702 32.419 236.391 44.1002 231.714 50.2581L210.175 79.3503C196.343 97.0391 182.974 115.094 170.101 133.483L167.396 137.346C165.297 140.359 165.659 144.429 168.274 147.021C168.807 147.549 169.45 147.934 170.155 148.203C173.584 149.503 178.676 148.042 181.471 145.756L183.046 144.411C186.176 141.704 189.206 138.88 192.056 135.875C195.058 132.719 197.935 129.456 200.694 126.095L216.425 106.971C233.54 86.1717 246.559 71.873 266.233 53.4145C270.322 48.878 279.259 43.0693 286.053 44.0273C287.862 44.2778 289.518 45.005 290.893 46.3669C293.986 49.4322 293.805 54.3467 292.204 59.2141C290.603 64.083 287.582 68.9049 284.976 71.7743C256.39 110.36 234.717 136.665 200.187 170.257C196.641 173.699 195.311 178.926 197.129 183.49C200.097 190.949 207.234 189.021 215.231 183.248C217.311 181.742 219.266 180.057 221.119 178.273L243.689 156.532L291.977 109.771C297.458 104.339 310.123 97.238 316.637 103.692L316.709 103.763C323.693 110.685 315.243 123.719 309.743 129.171L262.016 178.659L222.728 216.303C218.947 219.944 216.188 228.631 219.915 232.323C223.425 235.802 230.852 234.197 234.597 230.969L283.889 189.326C289.388 183.875 302.469 177.223 308.62 183.32C315.224 189.865 306.25 204.173 300.751 209.623L285.825 224.791C266.186 244.595 246.05 263.907 225.433 282.706C215.419 291.841 205.008 300.546 194.297 308.884C178.313 321.319 160.184 330.768 140.79 336.774C125.691 341.446 109.535 341.642 94.3383 337.339C84.7852 334.632 75.8296 330.22 67.888 324.303C62.8036 320.52 57.1232 315.625 51.7415 310.29C45.3365 303.943 39.3758 296.995 35.3774 290.611C29.3171 280.911 25.4 270.036 23.8987 258.722L22.6226 249.138C21.8168 243.015 21.7095 236.811 22.3422 230.661L27.1372 183.11L27.3639 168.47C27.6626 148.684 22.4694 128.888 10.9186 112.742C8.99147 110.044 7.77052 106.86 7.67094 103.552C7.63418 102.046 7.81648 100.666 8.3404 99.7157C11.4426 94.0953 18.3546 91.4945 24.8224 91.3959L24.824 91.3974Z" fill="#C67224"/>
<path d="M219.652 41.6831C222.027 41.6831 223.953 39.7744 223.953 37.4199C223.953 35.0654 222.027 33.1567 219.652 33.1567C217.276 33.1567 215.35 35.0654 215.35 37.4199C215.35 39.7744 217.276 41.6831 219.652 41.6831Z" fill="white"/>
<path d="M211.13 48.7409C213.775 46.1203 214.912 42.999 213.672 41.7693C212.431 40.5397 209.281 41.6672 206.637 44.2879C203.993 46.9085 202.855 50.0298 204.096 51.2595C205.337 52.4892 208.486 51.3616 211.13 48.7409Z" fill="white"/>
<path d="M275.539 296.885L275.827 296.731C295.082 286.456 311.045 271.107 321.991 252.343L326.269 245.008L319.624 241.201L315.344 248.537C305.112 266.08 290.186 280.429 272.185 290.036L271.895 290.189L275.538 296.885H275.539Z" fill="#7F7D7E"/>
<path d="M286.933 319.404C312.228 306.657 342.735 278.67 350 253.896L342.629 251.773C336.033 274.264 306.776 300.871 283.454 312.622L286.933 319.404Z" fill="#7F7D7E"/>
<path d="M104.455 84.0266L111.844 86.0898L114.164 77.937C119.713 58.4339 130.604 40.8787 145.656 27.1661L145.918 26.9277L140.682 21.3665L140.474 21.5562C124.361 36.2329 112.712 55.0118 106.777 75.8722L104.457 84.0281L104.455 84.0266Z" fill="#7F7D7E"/>
<path d="M79.8389 80.9446L87.5108 81.1935C88.2844 57.7856 109.981 24.828 129.64 7.71763L124.574 2C103.253 20.5572 80.6891 55.1606 79.8389 80.9446Z" fill="#7F7D7E"/>
</g>
<defs>
<clipPath id="clip0_73_62">
<rect width="350" height="346" fill="white" transform="translate(0 2)"/>
</clipPath>
</defs>
</svg>
