<svg width="3442" height="370" viewBox="0 0 3442 370" fill="none" xmlns="http://www.w3.org/2000/svg">
<rect x="940.707" y="26.3198" width="1447.66" height="342.953" rx="79.1429" fill="#FFCE47"/>
<path d="M21.2144 257.732L66.3258 140.205C70.1841 129.669 72.7067 119.133 74.0423 111.268C76.1198 101.029 98.8239 90.9384 108.469 90.9384C116.334 90.9384 119.005 96.4289 121.825 103.997L181.627 258.029C183.408 262.629 186.969 270.345 194.686 277.023C197.654 279.694 202.402 283.404 202.402 288.153C202.402 296.166 196.615 298.095 184.892 298.095C176.879 298.095 169.607 297.353 155.658 297.353C141.709 297.353 133.993 298.095 125.238 298.095C116.483 298.095 112.328 294.682 112.328 288.895C112.328 280.436 129.838 277.32 129.838 263.816C129.838 261.442 126.128 250.312 123.16 244.97C122.122 243.041 119.747 241.557 116.779 241.557H65.2871C61.4289 241.557 58.6094 243.041 56.8287 244.97C53.8608 249.422 48.9639 261.145 48.9639 266.19C48.9639 279.249 64.3967 281.178 64.3967 289.637C64.3967 294.385 61.5773 298.095 51.9317 298.095C45.5508 298.095 34.7181 297.353 27.8921 297.353C20.9176 297.353 16.4658 298.095 9.93651 298.095C3.55562 298.095 0.142578 295.127 0.142578 289.785C0.142578 280.436 12.1624 281.178 21.2144 257.732ZM69.7389 215.143H108.915C111.882 215.143 112.476 214.105 112.476 212.472C112.476 208.02 99.8627 171.071 92.7398 157.27C91.9978 155.638 90.6623 153.857 89.7719 153.857C88.5848 153.857 87.6944 155.638 86.8041 157.27C80.2748 170.329 66.3258 208.762 66.3258 212.472C66.3258 214.105 67.0678 215.143 69.7389 215.143Z" fill="white"/>
<path d="M360.227 197.039V255.506C360.227 261.294 362.75 267.823 369.279 267.823C372.396 267.823 374.028 266.784 376.105 266.784C377.738 266.784 379.222 269.01 379.222 272.423C379.222 288.004 365.421 299.876 348.208 299.876C330.994 299.876 323.723 290.972 319.716 283.256C319.123 282.069 318.084 280.139 316.155 280.139C315.264 280.139 313.632 281.623 311.851 283.404C305.916 288.449 293.154 300.321 270.153 300.321C233.797 300.321 220.738 276.133 220.738 245.267C220.738 223.898 224.003 196.891 224.003 189.175C224.003 180.865 221.925 176.71 217.77 172.703C213.022 168.251 206.937 167.064 206.937 160.09C206.937 154.599 210.944 151.779 219.402 150.889C245.816 148.07 254.126 144.657 261.101 144.657C268.669 144.657 270.598 149.999 270.598 154.747C270.598 172.109 265.108 189.026 265.108 231.021C265.108 254.913 271.192 271.087 290.78 271.087C304.877 271.087 317.342 261.739 317.342 237.402V194.665C317.342 182.794 316.006 177.6 310.367 172.555C306.361 168.4 301.464 166.767 301.464 160.09C301.464 154.747 305.174 152.076 313.038 151.038C334.555 148.812 349.246 144.657 354.737 144.657C361.563 144.657 363.64 149.554 363.64 154.599C363.64 164.393 360.227 171.664 360.227 197.039Z" fill="white"/>
<path d="M457.028 143.469C472.164 143.469 493.681 146.437 502.14 155.193C508.817 162.019 510.747 170.625 510.747 182.348C510.747 190.51 506.74 194.962 501.695 194.962C496.649 194.962 492.939 190.213 488.488 185.02C481.216 176.413 471.126 164.838 454.06 164.838C442.041 164.838 435.808 171.516 435.808 179.826C435.808 191.697 447.68 194.962 469.79 202.678C493.681 210.84 517.573 221.227 517.573 252.984C517.573 282.217 491.752 301.508 454.654 301.508C438.034 301.508 412.807 296.611 401.975 284.443C397.374 279.694 394.11 269.604 394.11 256.842C394.11 248.828 397.374 243.932 403.458 243.932C406.872 243.932 409.839 247.048 413.104 251.203C421.117 261.145 432.84 276.726 454.951 276.726C466.822 276.726 473.352 270.345 473.352 260.997C473.352 247.493 456.583 244.377 435.511 235.028C417.556 227.015 397.671 218.111 397.671 190.658C397.671 161.722 425.272 143.469 457.028 143.469Z" fill="white"/>
<path d="M591.802 178.787C591.208 184.871 590.466 217.963 590.466 233.396C590.466 250.312 594.918 265.745 611.241 265.745C619.403 265.745 625.042 260.997 628.751 257.88C630.532 256.1 631.719 255.209 633.352 255.209C635.578 255.209 637.803 256.842 637.803 262.332C637.803 265.449 636.765 269.455 634.687 273.462C629.048 285.036 614.357 300.321 588.685 300.321C559.452 300.321 546.69 280.585 546.69 246.603C546.69 233.099 548.619 201.491 548.619 184.426C548.619 178.342 546.987 175.226 542.09 174.335C532.89 173.296 527.251 171.813 527.251 166.025C527.251 160.831 528.586 155.786 534.225 152.967C544.019 148.07 553.813 141.689 560.936 134.566C572.807 122.249 574.44 108.004 583.64 108.004C588.982 108.004 593.137 112.159 593.137 121.211C593.137 127.443 591.653 147.773 591.653 149.108C591.653 149.85 591.802 150.296 592.989 150.296C595.957 150.296 618.661 148.96 622.519 148.96C629.197 148.96 633.203 150.889 633.203 159.051C633.203 164.393 630.235 171.813 627.119 175.226C626.229 176.116 624.151 177.155 621.332 177.155C618.067 177.155 598.776 175.968 594.324 175.968C593.434 175.968 591.95 176.264 591.802 178.787Z" fill="white"/>
<path d="M659.223 113.346C659.223 97.0225 675.101 80.4025 692.166 80.4025C704.038 80.4025 713.386 88.1189 713.386 100.287C713.386 116.907 695.579 130.411 677.921 130.411C665.159 130.411 659.223 123.14 659.223 113.346ZM709.083 153.56C709.083 162.464 707.599 178.193 707.599 209.059V256.545C707.599 268.268 709.973 272.72 714.425 277.32C718.729 281.772 723.774 282.81 723.774 289.488C723.774 294.534 720.954 298.095 712.348 298.095C703.741 298.095 695.134 297.353 686.676 297.353C676.585 297.353 670.352 298.095 657.739 298.095C650.468 298.095 648.094 294.385 648.094 289.933C648.094 283.552 653.732 280.288 656.404 277.468C663.823 269.752 664.714 262.035 664.714 254.467V194.665C664.714 185.316 660.262 179.974 655.365 177.451C652.249 175.374 648.687 173.148 648.687 168.845C648.687 160.831 658.184 160.089 669.611 155.489C684.153 149.702 694.392 143.766 699.586 143.766C705.818 143.766 709.083 146.734 709.083 153.56Z" fill="white"/>
<path d="M895.103 200.156C895.103 224.64 890.948 250.312 890.948 260.7C890.948 267.378 893.322 274.055 898.219 277.914C903.71 282.069 908.31 283.107 908.31 289.488C908.31 294.682 904.748 298.095 895.993 298.095C888.128 298.095 881.302 297.353 872.844 297.353C862.902 297.353 858.747 298.095 849.398 298.095C843.017 298.095 840.643 294.385 840.643 289.933C840.643 284.146 843.314 278.655 844.353 275.391C847.32 266.932 850.585 239.628 850.585 213.214C850.585 186.058 841.236 173.593 824.468 173.593C812.003 173.593 796.718 185.316 796.718 201.343V256.545C796.718 268.268 798.054 272.72 802.506 277.32C806.809 281.772 811.854 282.81 811.854 289.488C811.854 294.534 809.035 298.095 800.28 298.095C791.821 298.095 783.808 297.353 775.943 297.353C766.149 297.353 757.691 298.095 747.007 298.095C739.735 298.095 737.361 294.385 737.361 289.933C737.361 283.552 742.852 280.288 745.671 277.468C752.942 269.752 753.833 262.035 753.833 254.467V190.362C753.833 181.755 748.491 178.193 744.039 176.264C740.923 174.335 738.252 172.406 738.252 168.4C738.252 160.831 747.452 159.496 758.73 154.599C773.421 147.921 777.427 144.657 782.621 144.657C788.112 144.657 791.228 147.031 793.305 154.599C794.492 160.386 795.383 166.47 797.906 166.47C801.17 166.47 818.977 143.766 847.024 143.766C879.67 143.766 895.103 164.541 895.103 200.156Z" fill="white"/>
<path d="M1064.03 220.04V249.57C1064.03 266.339 1069.82 272.275 1079.61 276.43C1086.73 279.694 1092.82 282.217 1092.82 288.301C1092.82 295.721 1086.44 298.095 1076.94 298.095C1068.18 298.095 1050.97 297.353 1041.33 297.353C1031.09 297.353 1018.32 298.095 1011.2 298.095C1003.04 298.095 999.479 294.83 999.479 289.933C999.479 279.991 1013.58 280.436 1015.95 263.668C1017.29 255.209 1017.73 220.634 1017.73 191.846C1017.73 171.664 1017.58 143.469 1017.14 137.089C1015.21 113.643 1000.67 114.978 1000.67 103.552C1000.67 98.6548 1003.04 94.7966 1011.35 94.7966C1026.34 94.7966 1043.7 95.5386 1077.83 95.5386C1107.36 95.5386 1123.39 94.7966 1134.07 94.7966C1144.61 94.7966 1148.17 96.7257 1150.25 110.229C1151.43 116.61 1153.21 128.333 1155.44 139.76C1156.48 144.805 1157.22 150.592 1157.22 152.521C1157.22 158.754 1153.36 161.277 1149.21 161.277C1143.12 161.277 1140.16 154.747 1136.89 148.663C1125.46 125.662 1119.97 120.023 1088.07 120.023C1067.74 120.023 1064.03 122.843 1064.03 139.166V165.135C1064.03 177.451 1066.11 179.677 1071.75 179.677C1096.23 179.677 1097.86 171.219 1103.5 162.167C1105.28 159.644 1107.36 157.864 1110.18 157.864C1115.82 157.864 1118.19 162.612 1118.19 175.968V218.853C1118.19 226.718 1116.56 231.021 1111.07 231.021C1105.13 231.021 1102.76 225.828 1100.83 221.524C1095.79 210.84 1093.11 205.646 1072.64 205.646C1066.26 205.646 1064.03 209.208 1064.03 220.04Z" fill="#333333"/>
<path d="M1248.04 178.045C1236.17 178.045 1227.12 193.626 1227.12 208.02V254.616C1227.12 266.339 1229.49 271.236 1237.8 277.468C1242.7 281.178 1251.16 282.662 1251.16 289.488C1251.16 294.534 1248.48 298.095 1239.73 298.095C1231.12 298.095 1221.03 297.353 1206.34 297.353C1196.25 297.353 1190.02 298.095 1177.4 298.095C1170.13 298.095 1167.76 294.385 1167.76 289.933C1167.76 283.552 1173.25 280.288 1176.07 277.468C1183.34 269.752 1184.23 262.035 1184.23 254.467V190.362C1184.23 181.755 1178.89 178.193 1174.44 176.264C1171.32 174.335 1168.65 172.406 1168.65 168.4C1168.65 160.831 1177.85 159.496 1189.13 154.599C1203.82 147.921 1207.82 144.657 1213.02 144.657C1218.51 144.657 1221.63 147.031 1223.7 154.599C1224.89 160.386 1225.78 166.47 1228.3 166.47C1231.57 166.47 1245.81 143.766 1269.7 143.766C1284.25 143.766 1298.05 152.373 1298.05 175.968C1298.05 192.291 1286.18 208.911 1271.49 208.911C1261.69 208.911 1261.25 202.827 1259.02 192.588C1257.09 183.239 1253.23 178.045 1248.04 178.045Z" fill="#333333"/>
<path d="M1427.44 217.369C1410.38 227.015 1375.06 230.725 1356.81 231.763C1353.99 231.912 1352.95 232.505 1352.95 234.583C1352.95 245.564 1363.63 265.894 1390.94 265.894C1412.01 265.894 1424.62 255.655 1432.19 245.861C1434.12 243.932 1436.35 242.596 1438.13 242.596C1440.8 242.596 1442.58 245.267 1442.58 251.054C1442.58 270.494 1419.73 300.618 1377.58 300.618C1331.88 300.618 1303.83 269.604 1303.83 225.679C1303.83 181.606 1334.84 143.766 1381.59 143.766C1422.25 143.766 1440.06 173.742 1440.06 197.485C1440.06 207.575 1435.01 213.363 1427.44 217.369ZM1399.69 190.658C1399.69 176.858 1390.2 166.47 1377.28 166.47C1359.63 166.47 1347.46 184.426 1347.46 202.827C1347.46 208.317 1349.24 211.582 1353.25 211.582C1362.59 211.582 1386.63 207.575 1395.83 199.414C1398.36 197.039 1399.69 194.368 1399.69 190.658Z" fill="#333333"/>
<path d="M1580.18 217.369C1563.12 227.015 1527.8 230.725 1509.55 231.763C1506.73 231.912 1505.69 232.505 1505.69 234.583C1505.69 245.564 1516.37 265.894 1543.68 265.894C1564.75 265.894 1577.36 255.655 1584.93 245.861C1586.86 243.932 1589.09 242.596 1590.87 242.596C1593.54 242.596 1595.32 245.267 1595.32 251.054C1595.32 270.494 1572.47 300.618 1530.32 300.618C1484.62 300.618 1456.57 269.604 1456.57 225.679C1456.57 181.606 1487.59 143.766 1534.33 143.766C1574.99 143.766 1592.8 173.742 1592.8 197.485C1592.8 207.575 1587.75 213.363 1580.18 217.369ZM1552.43 190.658C1552.43 176.858 1542.94 166.47 1530.03 166.47C1512.37 166.47 1500.2 184.426 1500.2 202.827C1500.2 208.317 1501.98 211.582 1505.99 211.582C1515.33 211.582 1539.37 207.575 1548.57 199.414C1551.1 197.039 1552.43 194.368 1552.43 190.658Z" fill="#333333"/>
<path d="M1669.43 89.0093C1669.43 104.739 1668.1 106.52 1668.1 145.25V256.545C1668.1 268.268 1670.47 272.72 1674.92 277.32C1679.23 281.772 1684.27 282.81 1684.27 289.488C1684.27 294.534 1681.45 298.095 1672.84 298.095C1665.13 298.095 1654.89 297.353 1647.17 297.353C1637.38 297.353 1628.92 298.095 1618.24 298.095C1610.96 298.095 1608.59 294.385 1608.59 289.933C1608.59 283.552 1614.23 280.288 1616.9 277.468C1624.32 269.752 1625.21 262.035 1625.21 254.467V125.069C1625.21 117.649 1620.02 113.791 1615.56 111.713C1612.45 109.933 1609.48 108.004 1609.48 103.997C1609.48 96.8741 1618.68 95.5386 1630.11 90.79C1644.65 85.0026 1653.4 79.2153 1659.93 79.2153C1665.72 79.2153 1669.43 82.1832 1669.43 89.0093Z" fill="#333333"/>
<path d="M1742.07 216.776C1760.61 210.84 1780.94 209.653 1785.1 206.536C1786.88 205.201 1788.66 202.085 1788.66 192.291C1788.66 175.968 1781.54 163.354 1765.96 163.354C1752.9 163.354 1745.92 173.742 1742.07 188.136C1739.84 196.149 1736.43 201.936 1726.63 201.936C1716.54 201.936 1706.75 194.813 1706.75 180.419C1706.75 162.612 1728.26 143.618 1766.25 143.618C1803.2 143.618 1832.14 161.722 1832.14 202.975C1832.14 221.969 1830.51 240.37 1830.51 255.506C1830.51 261.294 1832.44 267.823 1839.11 267.823C1842.23 267.823 1843.71 266.784 1845.94 266.784C1847.57 266.784 1848.91 269.01 1848.91 272.423C1848.91 288.004 1835.11 299.876 1818.04 299.876C1804.09 299.876 1795.78 294.83 1791.03 285.185C1790.44 283.849 1789.55 282.514 1788.36 282.514C1787.18 282.514 1785.99 284.146 1784.8 285.333C1775.45 294.088 1759.87 300.914 1744.14 300.914C1719.06 300.914 1699.62 288.004 1699.62 263.668C1699.62 240.222 1716.1 225.531 1742.07 216.776ZM1788.96 240.518C1788.96 230.873 1787.92 228.647 1786.29 228.647C1777.68 228.647 1769.96 229.834 1762.99 232.357C1750.38 236.809 1743.25 245.861 1743.25 255.803C1743.25 265.745 1750.38 272.423 1761.21 272.423C1778.57 272.423 1788.96 258.771 1788.96 240.518Z" fill="#333333"/>
<path d="M2017.32 200.156C2017.32 224.64 2013.17 250.312 2013.17 260.7C2013.17 267.378 2015.54 274.055 2020.44 277.914C2025.93 282.069 2030.53 283.107 2030.53 289.488C2030.53 294.682 2026.97 298.095 2018.22 298.095C2010.35 298.095 2003.52 297.353 1995.07 297.353C1985.12 297.353 1980.97 298.095 1971.62 298.095C1965.24 298.095 1962.86 294.385 1962.86 289.933C1962.86 284.146 1965.54 278.655 1966.57 275.391C1969.54 266.932 1972.81 239.628 1972.81 213.214C1972.81 186.058 1963.46 173.593 1946.69 173.593C1934.22 173.593 1918.94 185.316 1918.94 201.343V256.545C1918.94 268.268 1920.28 272.72 1924.73 277.32C1929.03 281.772 1934.08 282.81 1934.08 289.488C1934.08 294.534 1931.26 298.095 1922.5 298.095C1914.04 298.095 1906.03 297.353 1898.17 297.353C1888.37 297.353 1879.91 298.095 1869.23 298.095C1861.96 298.095 1859.58 294.385 1859.58 289.933C1859.58 283.552 1865.07 280.288 1867.89 277.468C1875.16 269.752 1876.05 262.035 1876.05 254.467V190.362C1876.05 181.755 1870.71 178.193 1866.26 176.264C1863.14 174.335 1860.47 172.406 1860.47 168.4C1860.47 160.831 1869.67 159.496 1880.95 154.599C1895.64 147.921 1899.65 144.657 1904.84 144.657C1910.33 144.657 1913.45 147.031 1915.53 154.599C1916.71 160.386 1917.6 166.47 1920.13 166.47C1923.39 166.47 1941.2 143.766 1969.25 143.766C2001.89 143.766 2017.32 164.541 2017.32 200.156Z" fill="#333333"/>
<path d="M2043.33 225.382C2043.33 181.903 2072.12 143.766 2120.49 143.766C2150.17 143.766 2173.02 159.348 2173.02 181.755C2173.02 196.891 2162.34 207.13 2146.31 207.13C2139.19 207.13 2137.11 203.717 2135.18 195.11C2132.07 181.606 2126.73 165.877 2112.18 165.877C2096.3 165.877 2085.47 182.942 2085.47 206.24C2085.47 236.957 2102.39 261.442 2132.22 261.442C2155.07 261.442 2165.46 247.641 2171.24 240.518C2172.88 238.886 2174.66 237.105 2176.44 237.105C2180.44 237.105 2181.33 241.706 2181.33 246.751C2181.33 270.642 2157.44 300.618 2116.63 300.618C2072.27 300.618 2043.33 268.416 2043.33 225.382Z" fill="#333333"/>
<path d="M2316.35 217.369C2299.29 227.015 2263.97 230.725 2245.72 231.763C2242.9 231.912 2241.86 232.505 2241.86 234.583C2241.86 245.564 2252.54 265.894 2279.85 265.894C2300.92 265.894 2313.53 255.655 2321.1 245.861C2323.03 243.932 2325.25 242.596 2327.03 242.596C2329.71 242.596 2331.49 245.267 2331.49 251.054C2331.49 270.494 2308.63 300.618 2266.49 300.618C2220.79 300.618 2192.74 269.604 2192.74 225.679C2192.74 181.606 2223.75 143.766 2270.5 143.766C2311.16 143.766 2328.96 173.742 2328.96 197.485C2328.96 207.575 2323.92 213.363 2316.35 217.369ZM2288.6 190.658C2288.6 176.858 2279.1 166.47 2266.19 166.47C2248.54 166.47 2236.37 184.426 2236.37 202.827C2236.37 208.317 2238.15 211.582 2242.15 211.582C2251.5 211.582 2275.54 207.575 2284.74 199.414C2287.27 197.039 2288.6 194.368 2288.6 190.658Z" fill="#333333"/>
<path d="M2502.35 227.015V191.846C2502.35 165.135 2502.2 143.766 2501.61 137.385C2499.38 113.791 2480.09 116.165 2480.09 103.552C2480.09 98.6548 2482.76 94.7966 2490.63 94.7966C2499.09 94.7966 2515.41 95.5386 2525.35 95.5386C2535.15 95.5386 2544.5 94.7966 2553.55 94.7966C2561.71 94.7966 2564.23 98.6548 2564.23 103.552C2564.23 114.83 2551.62 113.494 2549.69 136.792C2549.1 143.469 2548.95 186.207 2548.95 206.24C2548.95 261.294 2539.15 301.805 2477.57 301.805C2432.16 301.805 2416.28 277.914 2416.28 254.616C2416.28 239.035 2425.63 222.266 2444.33 222.266C2458.87 222.266 2464.81 230.428 2464.81 239.331C2464.81 245.564 2459.17 253.132 2459.17 262.926C2459.17 270.939 2464.07 278.507 2476.23 278.507C2494.49 278.507 2502.35 259.81 2502.35 227.015Z" fill="white"/>
<path d="M2576.91 223.305C2576.91 176.264 2608.22 143.766 2651.4 143.766C2692.5 143.766 2729.31 173.296 2729.31 225.976C2729.31 275.688 2694.88 300.321 2653.18 300.321C2606.73 300.321 2576.91 267.971 2576.91 223.305ZM2647.39 166.916C2634.48 166.916 2622.76 178.045 2622.76 207.575C2622.76 221.376 2624.98 239.035 2631.22 252.538C2637.89 266.487 2648.43 273.165 2658.97 273.165C2672.62 273.165 2685.38 263.223 2685.38 237.105C2685.38 221.969 2681.37 203.272 2675.29 190.065C2667.72 174.632 2657.48 166.916 2647.39 166.916Z" fill="white"/>
<path d="M2755.6 251.5V125.366C2755.6 117.649 2750.26 113.791 2745.66 111.713C2742.69 109.933 2739.72 108.152 2739.72 103.997C2739.72 97.3193 2748.03 95.5386 2760.35 90.79C2777.12 84.4091 2783.35 79.2153 2790.17 79.2153C2795.52 79.2153 2799.82 81.8864 2799.82 89.0093C2799.82 97.6161 2797 113.346 2797 143.321V159.793C2797 165.283 2797.89 166.916 2799.08 166.916C2802.34 166.916 2814.81 143.766 2844.34 143.766C2879.8 143.766 2900.43 174.484 2900.43 217.369C2900.43 271.533 2868.97 300.321 2829.79 300.321C2810.06 300.321 2796.7 289.191 2789.58 289.191C2783.64 289.191 2779.04 290.082 2774.89 293.346C2769.1 297.798 2765.39 302.695 2760.79 302.695C2756.04 302.695 2753.52 299.727 2753.52 295.275C2753.52 287.262 2755.6 281.772 2755.6 251.5ZM2826.08 173.148C2811.69 173.148 2797.74 188.284 2797.74 221.524C2797.74 266.339 2810.06 276.133 2824.45 276.133C2839.59 276.133 2854.28 260.848 2854.28 223.75C2854.28 187.394 2841.96 173.148 2826.08 173.148Z" fill="white"/>
<path d="M2980 143.469C2995.13 143.469 3016.65 146.437 3025.11 155.193C3031.79 162.019 3033.72 170.625 3033.72 182.348C3033.72 190.51 3029.71 194.962 3024.67 194.962C3019.62 194.962 3015.91 190.213 3011.46 185.02C3004.19 176.413 2994.1 164.838 2977.03 164.838C2965.01 164.838 2958.78 171.516 2958.78 179.826C2958.78 191.697 2970.65 194.962 2992.76 202.678C3016.65 210.84 3040.54 221.227 3040.54 252.984C3040.54 282.217 3014.72 301.508 2977.62 301.508C2961 301.508 2935.78 296.611 2924.95 284.443C2920.34 279.694 2917.08 269.604 2917.08 256.842C2917.08 248.828 2920.34 243.932 2926.43 243.932C2929.84 243.932 2932.81 247.048 2936.07 251.203C2944.09 261.145 2955.81 276.726 2977.92 276.726C2989.79 276.726 2996.32 270.345 2996.32 260.997C2996.32 247.493 2979.55 244.377 2958.48 235.028C2940.53 227.015 2920.64 218.111 2920.64 190.658C2920.64 161.722 2948.24 143.469 2980 143.469Z" fill="white"/>
<g clip-path="url(#clip0_50_76)">
<path d="M3106.54 93.1808C3114.26 93.0584 3121.76 97.4359 3127.74 102.294C3128.83 103.183 3129.88 104.123 3130.87 105.109C3136.39 110.594 3140.29 117.51 3142.1 125.11C3142.56 127.043 3142.89 129.005 3143.07 130.982L3144.11 142.351C3144.8 149.788 3146.8 157.048 3150.01 163.795C3150.9 165.654 3151.97 167.433 3153.35 168.972C3153.63 169.29 3153.92 169.595 3154.22 169.889C3160.71 176.34 3169.68 176.574 3178.79 171.963C3182.45 170.112 3185.71 167.566 3188.57 164.644C3201.25 151.713 3213.17 138.066 3224.28 123.775L3244.82 97.3244L3258.65 79.6164C3272.59 61.7513 3282.98 49.41 3299.07 33.4212C3299.07 33.4212 3315.07 17.1592 3323.35 25.3915C3330.18 32.1839 3324.71 44.2599 3319.88 50.6315L3297.67 80.7217C3283.4 99.017 3269.63 117.684 3256.35 136.705L3253.56 140.706C3251.39 143.818 3251.77 148.026 3254.47 150.705C3257.65 153.872 3264.61 152.256 3268.08 149.4L3269.69 148.002C3272.92 145.209 3276.05 142.295 3278.98 139.197C3282.07 135.93 3285.04 132.547 3287.9 129.07L3304.12 109.294C3321.77 87.7827 3335.19 72.9856 3355.47 53.9021C3360.83 47.9623 3374.17 39.92 3380.9 46.6151C3387.29 52.96 3380.17 66.9516 3374.81 72.8899C3345.05 113.175 3324.32 139.984 3288.11 175.211C3283.63 179.564 3281.81 187.243 3286.24 191.643C3290.62 195.992 3302.38 189.503 3306.75 185.152L3332.24 160.542L3382.03 112.183C3387.69 106.562 3400.74 99.2227 3407.46 105.904C3407.48 105.927 3407.51 105.951 3407.53 105.974C3414.73 113.133 3406.02 126.604 3400.35 132.244L3351.13 183.433L3310.63 222.364C3306.73 226.123 3303.88 235.111 3307.72 238.929C3311.34 242.523 3319 240.868 3322.86 237.529L3373.69 194.461C3379.37 188.821 3392.84 181.946 3399.19 188.253C3406 195.02 3396.75 209.809 3391.08 215.449L3375.69 231.141C3355.44 251.624 3334.67 271.595 3313.41 291.035C3303.08 300.484 3292.34 309.488 3281.3 318.11C3264.82 330.974 3246.13 340.75 3226.13 346.958C3210.56 351.79 3193.91 351.992 3178.22 347.538C3168.38 344.743 3159.14 340.175 3150.95 334.061C3145.71 330.145 3139.85 325.074 3134.31 319.566C3127.7 313.001 3121.55 305.816 3117.43 299.215C3111.17 289.182 3107.13 277.938 3105.58 266.233L3104.27 256.327C3103.44 249.988 3103.34 243.575 3103.98 237.213L3108.93 188.039L3109.17 172.146C3109.48 151.771 3103.47 131.795 3091.97 114.929C3090.11 112.209 3088.96 109.041 3088.86 105.758C3088.81 104.205 3089 102.768 3089.54 101.795C3092.74 95.9804 3099.88 93.2892 3106.54 93.184L3106.54 93.1808Z" fill="#FFB700"/>
<path d="M3400 182.58L3401.28 184.166C3401.58 183.61 3400.99 183.045 3400 182.58Z" fill="#FFCB01"/>
<path d="M3096.56 109.983C3100.22 118.115 3104.52 127.6 3106.42 131.558L3106.81 132.375C3113.88 147.172 3118.17 163.12 3119.45 179.448L3120.65 194.717L3121.01 218.75C3121.87 230.46 3122.16 239.24 3122.08 250.988C3122.05 254.317 3122.4 257.886 3122.5 259.917C3123.4 277.209 3135.25 298.386 3164.31 295.02C3167.67 294.566 3170.99 293.759 3174.16 292.591C3177.33 291.441 3180.38 289.948 3183.24 288.122C3184.2 287.519 3185.1 287.538 3185.69 288.122C3186.17 288.604 3186.45 289.475 3186.39 290.691C3186.24 294.473 3185.03 297.626 3181.3 301.325C3180.77 301.854 3180.18 302.391 3179.53 302.957C3171.05 308.881 3169.94 318.941 3177.47 324.05L3177.48 324.059C3190.32 331.885 3205.47 335.083 3220.41 333.146L3220.87 333.091C3226.73 332.331 3232.51 331.042 3238.12 329.261L3238.92 329.002C3249.23 325.73 3258.94 320.861 3267.8 314.483L3268.25 314.167C3284.1 302.773 3299.3 290.488 3313.76 277.396L3382.78 214.895C3387.98 210.185 3392.98 204.289 3396.12 199.208C3397.64 196.751 3398.71 194.479 3399.17 192.634C3400.97 185.318 3400.7 186.634 3400 182.583C3398.09 181.647 3394.66 181.071 3393.47 181.508L3374.12 190.789L3373.61 191.029L3316.34 237.722L3310.43 239.586C3309.61 239.845 3308.7 239.641 3308.04 239.066C3298.62 230.777 3303.01 221.432 3313.55 210.954C3314.8 209.712 3316.14 208.451 3317.56 207.172C3325.26 200.58 3332.53 193.514 3339.34 186.005C3351.16 172.979 3375.13 147.128 3393.63 127.036C3395.31 125.22 3397.17 122.91 3398.93 120.398C3404.5 112.434 3409.06 102.374 3403.53 99.0814C3403.33 98.9605 3403.54 98.6088 3403.56 98.3497C3395.48 102.781 3387.39 107.223 3379.32 111.665C3376.33 114.566 3373.02 117.728 3369.48 121.093C3339.38 149.751 3293.45 192.012 3293.45 192.012L3286.24 191.641C3278.68 184.438 3280.64 178.597 3287.44 169.242C3291.81 163.225 3336.24 112.98 3363.46 78.7684C3367.28 73.9748 3370.4 69.6271 3372.9 65.7692C3379.88 54.9949 3382.06 47.8931 3381.15 44.7403C3380.78 43.4983 3380.46 42.4589 3380.15 41.5969C3378.24 35.9695 3377.68 37.6385 3377.81 39.0658L3373.06 40.391L3362.49 43.3491C3336.45 73.0186 3284.34 132.357 3284.34 132.357L3267.23 149.362L3262.61 150.288L3255.44 150.659L3254.46 150.706C3246.1 142.398 3250.98 135.9 3260.11 123.012C3269.94 109.104 3291.04 83.6626 3300.17 70.9884C3311.37 55.4393 3320.26 44.3603 3322.92 34.1512C3323.59 31.6108 3323.94 28.3009 3323.76 25.8059C3324.52 18.6304 3317.67 27.4279 3318.42 20.2429C3311.08 22.1805 3305.78 26.3162 3299.31 29.1723C3297.56 29.9511 3295.73 30.6373 3293.75 31.157C3286.47 40.8275 3277.64 52.5659 3268.24 65.0454C3241.1 101.104 3206.27 139.191 3194.05 155.417C3193.27 156.454 3191.98 158.29 3191.49 159.468C3189.97 163.074 3193.08 171.215 3194.48 174.979L3201.79 190.899C3206.86 201.412 3209.63 213.754 3209.5 225.881C3209.35 238.009 3206.31 249.933 3199.73 259.585C3196.36 263.358 3191.73 262.83 3193.54 256.933C3193.54 256.933 3193.76 256.08 3194.13 254.559C3194.87 251.619 3195.39 247.262 3195.5 242.616C3195.94 222.432 3191.38 207.986 3181.63 193.494C3181.62 193.475 3181.6 193.456 3181.6 193.439L3181.5 193.309C3177.93 188.014 3173.39 183.425 3168.11 179.791L3155.65 171.187L3151.73 166.904C3148.57 160.562 3148.46 154.628 3145.88 143.845L3144.18 121.963C3143.72 115.964 3140.68 110.438 3135.83 106.822L3119.36 94.5091L3107.41 92.3486C3107.33 92.3486 3107.27 92.358 3107.19 92.358C3098.43 92.8118 3092.97 102.029 3096.55 109.984L3096.56 109.983Z" fill="#FFCE47"/>
<path d="M3293.63 255.774C3294.74 229.369 3279.2 201.844 3270.89 189.855C3258.84 172.481 3246.96 163.459 3242.44 160.487C3235.63 156.004 3229.08 153.922 3221.65 153.862C3218.56 153.837 3216.51 154.255 3215.01 156.293C3213.38 158.516 3213.1 160.956 3213.35 163.084C3213.69 165.979 3215.17 168.628 3217.28 170.65L3231.32 182.335C3243.19 193.139 3251.56 203.849 3259.94 217.304C3264.98 225.388 3267.29 230.697 3275.06 248.911C3276.47 252.221 3280.33 261.951 3285.87 262.995H3285.98C3289.95 262.96 3293.47 259.716 3293.64 255.775L3293.63 255.774Z" fill="#FFDC67"/>
<path d="M3186.64 304.611C3186.33 303.132 3186.66 301.517 3187.63 299.766C3189.64 296.155 3193.46 293.913 3197.6 293.553C3200.23 293.325 3202.97 293.31 3205.76 293.402C3223.12 293.98 3240.33 289.797 3255.51 281.419C3255.62 281.356 3255.75 281.312 3255.85 281.232C3262.79 275.697 3269.63 277.381 3272.42 282.713C3272.89 287.191 3271.79 291.02 3269.32 295.366C3266.6 300.149 3261.7 303.903 3257.02 306.949C3241.01 317.355 3217.5 319.416 3198.96 314.726C3191.12 312.742 3187.38 308.086 3186.64 304.611Z" fill="#FFDC67"/>
<path d="M3189.31 252.75C3200.54 238.187 3194.6 215.263 3186.85 201.62C3170.22 172.334 3145.84 167.658 3138.88 166.7C3134.15 166.048 3130.9 169.446 3132.46 173.937C3134.02 178.416 3136.07 186.025 3137.06 189.143C3143.39 209.207 3146.62 228.9 3148.9 249.208C3149.1 250.96 3149.28 252.604 3149.44 254.089C3150.16 260.965 3155.5 265.873 3162.42 266.61C3172.79 267.566 3185.01 258.324 3189.31 252.75H3189.31Z" fill="#FFDC67"/>
<path d="M3137.5 117.157C3139.37 125.411 3138.31 132.885 3137.5 141.309C3137.49 141.337 3137.49 141.367 3137.49 141.395C3137.1 145.442 3132.41 147.517 3129.13 145.098C3128.9 144.931 3128.67 144.757 3128.44 144.572C3125.65 142.352 3123.41 139.508 3121.86 136.308C3119.8 132.039 3116.58 127.544 3113.49 124.328C3106.27 116.793 3100.37 110.463 3101.87 100.875C3102.53 96.6745 3106.07 93.3191 3110.34 93.2594C3113.41 93.217 3117.26 94.3523 3122.32 97.111C3125.62 98.9088 3128.62 101.269 3131 104.161C3133.32 106.967 3136.29 111.828 3137.5 117.157Z" fill="#FFDC67"/>
<path d="M3299.31 29.1709C3288.07 41.7147 3278.13 53.3055 3268.24 65.0423C3246.34 91.0769 3224.73 117.873 3190.02 157.51C3188.37 159.392 3182.42 162.608 3184.93 162.506C3185.09 162.496 3187.65 161.176 3191.16 162.041C3193.63 162.649 3198.12 163.002 3204.42 155.939C3212.03 147.417 3221.88 137.964 3230.58 126.345C3248.59 102.297 3263.95 81.028 3287.21 55.3907C3290.13 52.164 3293.48 48.0189 3296.89 43.8203C3302.76 36.5505 3312.2 30.1977 3320.68 33.2454C3321.17 33.4197 3322.36 34.2047 3322.92 34.1498C3323.59 31.6093 3323.88 29.1159 3323.71 26.6209C3324.47 19.4438 3317.67 27.428 3318.43 20.2415C3311.09 22.179 3305.79 26.3148 3299.31 29.1709Z" fill="#FFDC67"/>
<path d="M3312.57 88.6857C3306.42 95.4624 3300.27 102.231 3294.13 109.019L3281.76 124.094C3278.98 127.487 3276.11 130.751 3273.21 133.812C3270.67 136.49 3265.99 141.673 3264.62 142.592C3263.85 143.214 3263.08 143.696 3262.45 144.047C3262.14 144.223 3261.81 144.131 3261.6 143.926C3258.78 145.65 3255.48 147.134 3253.96 149.48C3255.16 149.378 3255.19 149.962 3255.44 150.658C3255.58 151.093 3255.8 151.548 3256.4 151.928C3256.42 151.947 3256.44 151.947 3256.46 151.966C3264.37 156.712 3274.64 151.325 3280.91 144.242C3295.3 127.989 3308.67 111.42 3323.26 95.3431C3332.74 84.8105 3341.59 74.176 3352.15 64.4034C3355.13 61.6494 3357.34 59.6192 3361.27 57.3566C3367.06 54.0185 3374.94 53.8677 3372.9 65.7663C3381.71 51.3869 3382.07 47.8902 3381.15 44.7374C3380.78 43.4954 3380.46 42.4559 3380.15 41.5939C3378.01 41.2611 3375.63 41.0664 3375.49 40.666C3374.47 40.6016 3373.69 40.509 3373.06 40.3881C3370.48 39.9154 3370.3 39.0895 3366.38 38.7834C3366.09 38.7551 3363.03 40.7947 3362.71 40.7759C3362.38 41.1197 3360.87 40.8779 3360.55 41.2202C3345.56 56.6202 3327.4 73.3846 3312.57 88.6825L3312.57 88.6857Z" fill="#FFDC67"/>
<path d="M3369.48 121.09C3375.15 118.809 3383.57 115.75 3389.12 114.164C3391.2 113.561 3393.47 113.765 3395.29 114.943C3396.77 115.888 3398.02 117.493 3398.93 120.395C3404.5 112.431 3409.06 102.371 3403.53 99.0784C3403.33 98.9575 3403.54 98.6058 3403.56 98.3467C3395.48 102.778 3387.39 107.22 3379.32 111.662C3376.33 114.563 3373.02 117.725 3369.48 121.09Z" fill="#FFDC67"/>
<path d="M3374.12 190.786C3369.42 195.644 3364.58 200.632 3361.71 203.785C3376.77 194.565 3385.87 188.638 3392.36 193.383C3393.84 194.46 3395.21 196.061 3396.11 199.205C3397.63 196.748 3398.71 194.476 3399.16 192.631C3400.96 185.315 3400.7 186.631 3400 182.58C3398.09 181.644 3394.66 181.068 3393.47 181.505L3374.12 190.786H3374.12Z" fill="#FFDC67"/>
<path d="M3082.59 98.0138C3081.41 100.174 3080.86 102.853 3080.95 105.987C3081.08 110.66 3082.65 115.296 3085.44 119.385C3096.06 134.878 3101.54 153.283 3101.26 172.03L3101.02 187.589L3096.1 236.423C3095.4 243.387 3095.51 250.415 3096.43 257.35L3097.73 267.253C3099.44 280.15 3103.81 292.295 3110.71 303.367C3115.97 311.786 3123.4 319.851 3128.7 325.127C3134.35 330.737 3140.56 336.132 3146.2 340.351C3157.34 348.678 3170.11 354.305 3183.96 356.976C3199.83 360.055 3216.25 358.534 3231.6 353.471C3251.41 346.935 3269.75 337.125 3286.18 324.293C3297.72 315.29 3308.68 306.047 3318.77 296.821C3340.04 277.378 3361.09 257.129 3381.36 236.629L3396.71 220.978C3404.33 213.375 3416.28 194.099 3404.79 182.685C3394.15 172.106 3375.97 181.258 3368.34 188.657L3317.73 231.539C3317.7 231.567 3317.67 231.575 3317.66 231.594C3317.16 232.03 3316.47 232.382 3315.75 232.632C3314.87 232.938 3314.02 232.076 3314.33 231.195C3314.77 229.962 3315.42 228.702 3316.13 228.015L3356.64 189.084L3356.86 188.87L3406.02 137.746C3415 128.781 3424.26 111.489 3413.13 100.41L3413.06 100.336C3402.63 89.97 3385.39 97.7406 3376.47 106.585L3326.73 154.9L3301.24 179.507L3301.16 179.591C3297.68 182.938 3295.26 184.755 3293.53 185.469C3292.77 185.785 3291.94 185.581 3291.42 185.061C3291.09 184.727 3290.88 184.263 3290.87 183.736C3290.88 183.207 3291.02 182.216 3291.88 181.362C3329.48 144.785 3352.24 116.728 3380.98 77.8343C3387.63 70.26 3397.38 51.8548 3386.52 41.0537C3383.2 37.7533 3378.8 36.0937 3373.78 36.224C3370.04 36.326 3366.21 37.4471 3362.62 39.1445C3361.97 39.4412 3361.33 39.7568 3360.72 40.0991C3356.38 42.3994 3352.53 45.458 3349.82 48.3973C3330.53 66.5701 3316.95 81.2368 3297.99 104.324L3294.14 109.025L3281.77 124.1C3278.99 127.493 3276.12 130.758 3273.22 133.818C3270.68 136.496 3266 141.68 3264.63 142.598C3263.86 143.22 3263.09 143.702 3262.46 144.054C3262.15 144.229 3261.82 144.137 3261.61 143.933C3261.44 143.747 3261.37 143.451 3261.51 143.163L3262.59 140.92C3275.72 122.098 3289.83 103.647 3303.93 85.5485C3303.99 85.4935 3304.03 85.437 3304.06 85.382L3326.25 55.3232C3334.45 44.4751 3338.47 29.2981 3328.96 19.8411C3325.88 16.7809 3321.92 15.1778 3317.49 15.2061C3306.49 15.2704 3295.62 25.7009 3293.46 27.8897C3276.79 44.4578 3266.17 57.1603 3252.39 74.804L3238.57 92.5309L3218.02 118.983C3207.15 132.975 3195.33 146.501 3182.92 159.157C3180.46 161.66 3177.87 163.616 3175.21 164.962C3168.72 168.243 3163.54 168.03 3159.82 164.33C3159.64 164.155 3159.47 163.96 3159.28 163.756C3157.58 161.864 3156.2 158.694 3154.68 153.529C3153.1 148.199 3152.12 142.728 3151.59 137.201L3150.96 130.266C3150.74 127.939 3150.36 125.593 3149.81 123.303C3147.67 114.309 3143.06 106.094 3136.47 99.5479C3135.3 98.3797 3134.06 97.257 3132.76 96.2097C3123.71 88.8473 3114.84 85.1858 3106.43 85.3161C3095.95 85.4919 3086.83 90.35 3082.6 98.0185L3082.59 98.0138ZM3106.54 93.1825C3114.26 93.0522 3121.76 97.4297 3127.74 102.297C3128.83 103.178 3129.88 104.123 3130.87 105.106C3136.39 110.595 3140.29 117.512 3142.11 125.105C3142.56 127.043 3142.89 128.999 3143.08 130.984L3144.12 142.352C3144.83 150.121 3146.96 157.678 3150.44 164.677C3151.01 165.836 3151.69 166.94 3152.49 167.951C3153.04 168.647 3153.62 169.295 3154.21 169.889C3160.61 176.249 3169.42 176.565 3178.39 172.17C3182.06 170.363 3185.33 167.868 3188.22 164.995C3200.01 153.284 3211.02 140.833 3221.22 127.713L3244.83 97.3292L3258.65 79.6212C3272.59 61.7639 3282.98 49.4132 3299.07 33.4197C3299.07 33.4197 3315.07 17.1656 3323.35 25.3994C3330.18 32.1872 3324.7 44.2678 3319.88 50.6363L3297.67 80.7234C3283.41 99.0171 3269.62 117.689 3256.35 136.707L3253.56 140.703C3251.39 143.818 3251.77 148.028 3254.46 150.708C3255.01 151.254 3255.68 151.653 3256.4 151.931C3259.94 153.275 3265.19 151.765 3268.07 149.4L3269.7 148.009C3272.92 145.209 3276.05 142.289 3278.99 139.181C3282.08 135.917 3285.05 132.543 3287.89 129.067L3304.12 109.289C3321.76 87.7781 3335.19 72.9905 3355.48 53.9007C3359.69 49.2091 3368.91 43.2017 3375.92 44.1925C3377.78 44.4515 3379.49 45.2036 3380.91 46.6121C3384.1 49.7822 3383.91 54.8647 3382.26 59.8986C3380.61 64.9341 3377.49 69.9208 3374.81 72.8884C3345.33 112.794 3322.98 139.998 3287.37 174.739C3283.71 178.298 3282.34 183.704 3284.22 188.424C3287.28 196.138 3294.64 194.144 3302.88 188.175C3305.03 186.617 3307.04 184.874 3308.96 183.029L3332.23 160.545L3382.02 112.184C3387.68 106.566 3400.74 99.2228 3407.45 105.898L3407.53 105.971C3414.73 113.13 3406.02 126.609 3400.34 132.248L3351.13 183.428L3310.62 222.36C3306.72 226.125 3303.87 235.109 3307.71 238.928C3311.33 242.525 3318.99 240.865 3322.85 237.527L3373.68 194.46C3379.35 188.823 3392.84 181.943 3399.19 188.248C3406 195.017 3396.74 209.814 3391.07 215.451L3375.68 231.138C3355.43 251.619 3334.66 271.592 3313.4 291.033C3303.08 300.481 3292.34 309.484 3281.3 318.107C3264.81 330.967 3246.12 340.739 3226.12 346.951C3210.55 351.782 3193.89 351.984 3178.22 347.535C3168.37 344.735 3159.13 340.172 3150.95 334.053C3145.7 330.141 3139.84 325.078 3134.3 319.561C3127.69 312.996 3121.54 305.811 3117.42 299.209C3111.17 289.177 3107.13 277.93 3105.58 266.23L3104.27 256.317C3103.44 249.985 3103.33 243.569 3103.98 237.209L3108.92 188.032L3109.16 172.891C3109.47 152.429 3104.11 131.956 3092.2 115.257C3090.21 112.467 3088.95 109.174 3088.85 105.753C3088.81 104.195 3089 102.768 3089.54 101.785C3092.74 95.9726 3099.87 93.283 3106.54 93.1809L3106.54 93.1825Z" fill="#C67224"/>
<path d="M3307.44 41.7681C3309.89 41.7681 3311.88 39.7942 3311.88 37.3592C3311.88 34.9242 3309.89 32.9502 3307.44 32.9502C3304.99 32.9502 3303.01 34.9242 3303.01 37.3592C3303.01 39.7942 3304.99 41.7681 3307.44 41.7681Z" fill="white"/>
<path d="M3298.66 49.0673C3301.38 46.357 3302.56 43.129 3301.28 41.8572C3300 40.5855 3296.75 41.7517 3294.02 44.4619C3291.3 47.1722 3290.12 50.4002 3291.4 51.6719C3292.68 52.9437 3295.93 51.7775 3298.66 49.0673Z" fill="white"/>
<path d="M3365.07 305.697L3365.37 305.538C3385.23 294.911 3401.69 279.037 3412.97 259.632L3417.39 252.047L3410.53 248.109L3406.12 255.696C3395.57 273.839 3380.18 288.678 3361.61 298.614L3361.32 298.772L3365.07 305.697H3365.07Z" fill="#7F7D7E"/>
<path d="M3376.82 328.987C3402.91 315.804 3434.37 286.86 3441.86 261.238L3434.26 259.043C3427.45 282.303 3397.29 309.82 3373.24 321.973L3376.82 328.987Z" fill="#7F7D7E"/>
<path d="M3188.65 85.5595L3196.27 87.6934L3198.67 79.2617C3204.39 59.0916 3215.62 40.9361 3231.14 26.7545L3231.41 26.508L3226.01 20.7566L3225.8 20.9529C3209.18 36.1314 3197.17 55.5525 3191.05 77.1263L3188.65 85.5611L3188.65 85.5595Z" fill="#7F7D7E"/>
<path d="M3163.27 82.3721L3171.18 82.6296C3171.98 58.4211 3194.35 24.3365 3214.62 6.64094L3209.4 0.727783C3187.41 19.9196 3164.15 55.7063 3163.27 82.3721Z" fill="#7F7D7E"/>
</g>
<defs>
<clipPath id="clip0_50_76">
<rect width="360.917" height="357.832" fill="white" transform="translate(3080.94 0.727783)"/>
</clipPath>
</defs>
</svg>
