<svg width="742" height="209" viewBox="0 0 742 209" fill="none" xmlns="http://www.w3.org/2000/svg">
<g clip-path="url(#clip0_67_29)">
<path d="M548.754 53.7431C553.203 53.6726 557.525 56.1954 560.97 58.9951C561.6 59.5073 562.202 60.0493 562.774 60.6176C565.954 63.7784 568.203 67.7644 569.248 72.144C569.514 73.258 569.699 74.3891 569.805 75.5283L570.408 82.0806C570.802 86.3662 571.953 90.5504 573.807 94.4387C574.318 95.5101 574.938 96.5353 575.73 97.4221C575.894 97.6058 576.06 97.7813 576.23 97.9506C579.971 101.669 585.139 101.804 590.391 99.1459C592.5 98.079 594.378 96.6122 596.029 94.9282C603.336 87.4756 610.206 79.6112 616.605 71.3749L628.448 56.1311L636.413 45.9258C644.449 35.63 650.439 28.5176 659.71 19.3031C659.71 19.3031 668.93 9.93117 673.703 14.6755C677.641 18.59 674.487 25.5495 671.705 29.2216L658.905 46.5629C650.682 57.1066 642.742 67.8648 635.093 78.8266L633.484 81.1323C632.233 82.9258 632.452 85.3509 634.004 86.8946C635.84 88.7198 639.849 87.7887 641.85 86.1427L642.78 85.3373C644.641 83.7275 646.441 82.048 648.132 80.2627C649.914 78.3796 651.626 76.4305 653.271 74.4262L662.622 63.0291C672.793 50.6321 680.529 42.1045 692.215 31.1065C695.302 27.6833 702.99 23.0484 706.872 26.9069C710.551 30.5635 706.448 38.627 703.361 42.0493C686.208 65.266 674.26 80.7161 653.391 101.018C650.813 103.526 649.766 107.952 652.317 110.488C654.839 112.994 661.616 109.254 664.138 106.747L678.826 92.5638L707.523 64.6941C710.782 61.4546 718.302 57.2252 722.177 61.0755C722.19 61.089 722.203 61.1026 722.217 61.1162C726.367 65.2416 721.349 73.0055 718.079 76.2559L689.714 105.756L666.371 128.193C664.122 130.359 662.48 135.539 664.696 137.739C666.779 139.811 671.198 138.857 673.42 136.932L702.715 112.112C705.985 108.862 713.752 104.899 717.409 108.534C721.333 112.434 716.004 120.957 712.734 124.208L703.867 133.251C692.196 145.055 680.229 156.565 667.976 167.768C662.02 173.214 655.832 178.403 649.468 183.372C639.973 190.786 629.198 196.42 617.671 199.998C608.698 202.782 599.103 202.899 590.064 200.331C584.392 198.721 579.065 196.088 574.348 192.565C571.326 190.308 567.949 187.385 564.755 184.211C560.949 180.428 557.403 176.287 555.03 172.483C551.422 166.7 549.094 160.22 548.202 153.474L547.447 147.766C546.965 144.113 546.907 140.417 547.276 136.75L550.131 108.411L550.27 99.2518C550.447 87.509 546.985 75.9971 540.354 66.2768C539.285 64.7095 538.62 62.8834 538.564 60.9913C538.536 60.0964 538.646 59.2684 538.955 58.7074C540.799 55.3566 544.913 53.8056 548.756 53.745L548.754 53.7431Z" fill="#FFB700"/>
<path d="M717.88 105.265L718.617 106.179C718.789 105.858 718.45 105.533 717.88 105.265Z" fill="#FFCB01"/>
<path d="M543 63.4264C545.113 68.1128 547.591 73.5792 548.683 75.8604L548.908 76.331C552.983 84.8586 555.456 94.0496 556.193 103.46L556.886 112.26L557.09 126.11C557.59 132.858 557.757 137.919 557.708 144.689C557.692 146.607 557.891 148.664 557.951 149.835C558.472 159.801 565.299 172.005 582.045 170.065C583.986 169.803 585.894 169.338 587.723 168.665C589.551 168.002 591.309 167.142 592.959 166.09C593.513 165.742 594.029 165.753 594.368 166.09C594.647 166.367 594.808 166.87 594.771 167.57C594.684 169.75 593.986 171.567 591.841 173.699C591.534 174.004 591.191 174.313 590.82 174.639C585.933 178.053 585.294 183.851 589.632 186.795L589.637 186.801C597.034 191.311 605.77 193.154 614.377 192.037L614.646 192.006C618.022 191.568 621.35 190.825 624.586 189.799L625.048 189.649C630.989 187.763 636.585 184.957 641.692 181.282L641.951 181.1C651.085 174.533 659.842 167.453 668.175 159.908L707.951 123.888C710.951 121.174 713.833 117.776 715.639 114.848C716.516 113.431 717.134 112.122 717.397 111.059C718.435 106.843 718.284 107.601 717.88 105.267C716.779 104.727 714.799 104.395 714.117 104.647L702.961 109.996L702.671 110.134L669.663 137.044L666.259 138.118C665.786 138.267 665.26 138.149 664.883 137.818C659.453 133.041 661.98 127.655 668.055 121.617C668.775 120.901 669.55 120.175 670.366 119.437C674.802 115.638 678.995 111.566 682.919 107.238C689.731 99.7314 703.547 84.8333 714.207 73.2544C715.175 72.2074 716.244 70.8763 717.26 69.4285C720.469 64.8389 723.099 59.0413 719.91 57.1437C719.798 57.074 719.916 56.8714 719.927 56.722C715.271 59.2756 710.611 61.8356 705.96 64.3955C704.234 66.0677 702.326 67.8902 700.289 69.8294C682.941 86.3454 656.469 110.7 656.469 110.7L652.318 110.487C647.959 106.335 649.087 102.969 653.007 97.5778C655.528 94.1102 681.134 65.1538 696.821 45.4372C699.019 42.6746 700.82 40.1689 702.261 37.9456C706.283 31.7363 707.541 27.6435 707.014 25.8264C706.799 25.1107 706.616 24.5116 706.438 24.0149C705.336 20.7717 705.014 21.7336 705.089 22.5562L702.352 23.3199L696.262 25.0247C681.252 42.1235 651.222 76.321 651.222 76.321L641.363 86.121L638.696 86.6549L634.567 86.8684L634.003 86.8956C629.186 82.1078 631.997 78.3625 637.255 70.9351C642.921 62.9196 655.082 48.2577 660.345 40.9535C666.801 31.9924 671.925 25.6075 673.456 19.7239C673.843 18.2598 674.043 16.3523 673.94 14.9144C674.38 10.7791 670.429 15.8491 670.864 11.7084C666.634 12.825 663.58 15.2085 659.849 16.8545C658.839 17.3033 657.785 17.6987 656.646 17.9983C652.447 23.5715 647.361 30.3364 641.943 37.5285C626.304 58.3092 606.23 80.2591 599.187 89.6102C598.736 90.2083 597.994 91.2662 597.709 91.9448C596.833 94.0234 598.628 98.7152 599.435 100.884L603.645 110.059C606.569 116.118 608.166 123.23 608.09 130.22C608.004 137.209 606.252 144.081 602.461 149.643C600.52 151.818 597.848 151.514 598.891 148.115C598.891 148.115 599.021 147.624 599.236 146.747C599.661 145.053 599.961 142.542 600.02 139.864C600.273 128.232 597.65 119.907 592.031 111.555C592.021 111.544 592.011 111.533 592.01 111.523L591.956 111.448C589.897 108.397 587.279 105.752 584.236 103.658L577.054 98.6989L574.796 96.2304C572.979 92.5755 572.914 89.156 571.424 82.9412L570.446 70.3307C570.183 66.8731 568.43 63.6888 565.634 61.6048L556.141 54.5087L549.254 53.2636C549.212 53.2636 549.173 53.269 549.131 53.269C544.082 53.5305 540.932 58.8422 542.996 63.4273L543 63.4264Z" fill="#FFCE47"/>
<path d="M656.578 147.447C657.216 132.23 648.261 116.367 643.469 109.457C636.523 99.4445 629.682 94.245 627.076 92.5321C623.148 89.9486 619.377 88.7487 615.093 88.7143C613.312 88.6999 612.132 88.9406 611.268 90.1151C610.324 91.3964 610.163 92.8026 610.309 94.0288C610.507 95.6974 611.356 97.2239 612.574 98.3894L620.666 105.124C627.504 111.35 632.332 117.522 637.16 125.276C640.062 129.936 641.393 132.995 645.871 143.492C646.685 145.399 648.912 151.007 652.101 151.609H652.167C654.454 151.589 656.483 149.719 656.578 147.448L656.578 147.447Z" fill="#FFDC67"/>
<path d="M594.919 175.593C594.738 174.74 594.928 173.809 595.489 172.8C596.647 170.719 598.849 169.427 601.233 169.22C602.747 169.088 604.325 169.079 605.935 169.133C615.938 169.466 625.856 167.055 634.607 162.227C634.672 162.19 634.744 162.165 634.803 162.119C638.803 158.929 642.743 159.899 644.35 162.972C644.624 165.553 643.988 167.76 642.565 170.265C640.999 173.021 638.175 175.185 635.475 176.94C626.249 182.937 612.699 184.125 602.016 181.422C597.496 180.278 595.344 177.595 594.919 175.593Z" fill="#FFDC67"/>
<path d="M596.454 145.704C602.926 137.312 599.502 124.1 595.037 116.238C585.453 99.3596 571.4 96.6649 567.393 96.1129C564.665 95.7374 562.792 97.6955 563.692 100.284C564.588 102.865 565.773 107.25 566.34 109.047C569.988 120.61 571.85 131.959 573.168 143.663C573.282 144.673 573.386 145.62 573.476 146.476C573.894 150.439 576.973 153.267 580.958 153.692C586.937 154.243 593.976 148.917 596.454 145.704H596.454Z" fill="#FFDC67"/>
<path d="M566.596 67.5609C567.676 72.3179 567.061 76.6252 566.595 81.4799C566.593 81.4962 566.591 81.5134 566.59 81.5297C566.364 83.8616 563.664 85.0578 561.771 83.6634C561.64 83.5675 561.508 83.467 561.375 83.3602C559.767 82.0807 558.478 80.442 557.585 78.5978C556.396 76.1374 554.537 73.5467 552.761 71.6935C548.599 67.351 545.198 63.7034 546.063 58.1772C546.442 55.7566 548.481 53.8229 550.944 53.7885C552.713 53.7641 554.929 54.4183 557.849 56.0082C559.752 57.0443 561.476 58.4043 562.852 60.0711C564.188 61.6882 565.898 64.4897 566.596 67.5609Z" fill="#FFDC67"/>
<path d="M659.851 16.8536C653.373 24.0828 647.642 30.7627 641.943 37.5267C629.321 52.5306 616.87 67.9735 596.866 90.8165C595.914 91.9014 592.482 93.7546 593.929 93.6958C594.02 93.6904 595.5 92.9294 597.522 93.428C598.942 93.7782 601.53 93.9818 605.163 89.9116C609.546 84.9999 615.224 79.5524 620.237 72.8563C630.616 58.997 639.471 46.7394 652.873 31.9644C654.561 30.1048 656.491 27.7159 658.453 25.2962C661.839 21.1066 667.274 17.4454 672.164 19.2018C672.445 19.3022 673.135 19.7547 673.457 19.723C673.844 18.2589 674.01 16.8219 673.908 15.3841C674.349 11.2478 670.43 15.8492 670.866 11.7075C666.635 12.8242 663.582 15.2076 659.851 16.8536Z" fill="#FFDC67"/>
<path d="M667.49 51.1525C663.948 55.058 660.399 58.959 656.862 62.8708L649.734 71.5586C648.131 73.5141 646.476 75.3954 644.809 77.159C643.342 78.7027 640.648 81.6898 639.858 82.2191C639.412 82.5775 638.971 82.8553 638.605 83.058C638.427 83.1593 638.234 83.1059 638.116 82.9883C636.493 83.9819 634.589 84.837 633.713 86.1889C634.407 86.1301 634.423 86.4667 634.568 86.8675C634.648 87.1182 634.772 87.3806 635.122 87.5996C635.133 87.6105 635.144 87.6105 635.154 87.6213C639.712 90.3568 645.631 87.2521 649.244 83.1702C657.539 73.8037 665.242 64.2544 673.651 54.9892C679.113 48.9193 684.214 42.7904 690.3 37.1584C692.016 35.5712 693.289 34.4012 695.558 33.0973C698.891 31.1735 703.434 31.0866 702.262 37.9439C707.338 29.6569 707.542 27.6417 707.015 25.8247C706.8 25.1089 706.617 24.5099 706.439 24.0131C705.203 23.8213 703.832 23.7091 703.752 23.4783C703.165 23.4412 702.714 23.3878 702.354 23.3182C700.865 23.0458 700.763 22.5698 698.5 22.3934C698.333 22.3771 696.569 23.5525 696.387 23.5417C696.198 23.7398 695.328 23.6005 695.139 23.7977C686.5 32.6729 676.039 42.3344 667.491 51.1507L667.49 51.1525Z" fill="#FFDC67"/>
<path d="M700.289 69.8276C703.557 68.5128 708.407 66.7501 711.605 65.8362C712.804 65.4887 714.116 65.6063 715.164 66.285C716.014 66.8298 716.739 67.7545 717.261 69.4268C720.47 64.8372 723.099 59.0396 719.911 57.142C719.798 57.0723 719.916 56.8696 719.927 56.7203C715.272 59.2739 710.611 61.8339 705.961 64.3938C704.235 66.066 702.327 67.8885 700.289 69.8276Z" fill="#FFDC67"/>
<path d="M702.961 109.994C700.252 112.794 697.467 115.668 695.811 117.485C704.487 112.172 709.732 108.756 713.476 111.49C714.326 112.111 715.116 113.034 715.637 114.846C716.514 113.43 717.132 112.12 717.395 111.057C718.433 106.841 718.282 107.599 717.879 105.265C716.777 104.726 714.798 104.393 714.115 104.645L702.96 109.994H702.961Z" fill="#FFDC67"/>
<path d="M534.953 56.5284C534.27 57.7735 533.953 59.3173 534.007 61.1234C534.082 63.8164 534.986 66.4885 536.592 68.8449C542.716 77.7734 545.871 88.3805 545.71 99.1848L545.57 108.151L542.737 136.295C542.333 140.308 542.398 144.359 542.925 148.356L543.678 154.063C544.662 161.495 547.178 168.495 551.156 174.875C554.189 179.727 558.468 184.376 561.527 187.416C564.779 190.649 568.359 193.758 571.612 196.19C578.031 200.988 585.391 204.231 593.369 205.771C602.518 207.545 611.98 206.668 620.829 203.751C632.242 199.984 642.812 194.33 652.284 186.935C658.934 181.747 665.251 176.42 671.062 171.103C683.324 159.897 695.452 148.228 707.135 136.414L715.984 127.394C720.371 123.012 727.257 111.903 720.64 105.325C714.505 99.2283 704.028 104.503 699.63 108.767L670.465 133.48C670.449 133.496 670.433 133.501 670.423 133.512C670.138 133.763 669.74 133.966 669.326 134.11C668.815 134.286 668.326 133.79 668.504 133.282C668.757 132.572 669.133 131.845 669.541 131.45L692.89 109.013L693.013 108.89L721.344 79.4266C726.521 74.2597 731.859 64.2942 725.447 57.9093L725.404 57.8667C719.393 51.8927 709.459 56.371 704.32 61.4682L675.65 89.3125L660.964 103.494L660.915 103.542C658.91 105.471 657.512 106.518 656.518 106.93C656.077 107.112 655.604 106.994 655.303 106.695C655.109 106.502 654.991 106.235 654.986 105.931C654.991 105.626 655.071 105.055 655.567 104.563C677.237 83.4832 690.354 67.3138 706.918 44.8988C710.751 40.5336 716.369 29.9265 710.106 23.7018C708.193 21.7997 705.661 20.8432 702.768 20.9183C700.613 20.9772 698.403 21.6233 696.334 22.6014C695.958 22.7725 695.592 22.9543 695.242 23.1516C692.737 24.4773 690.522 26.24 688.958 27.9339C677.84 38.4071 670.013 46.8597 659.089 60.1652L656.869 62.8744L649.74 71.5622C648.138 73.5177 646.483 75.399 644.816 77.1626C643.348 78.7063 640.654 81.6934 639.864 82.2227C639.418 82.5811 638.977 82.8589 638.611 83.0615C638.434 83.1629 638.241 83.1095 638.122 82.9919C638.026 82.8851 637.982 82.7141 638.063 82.5485L638.687 81.2554C646.256 70.4085 654.385 59.7752 662.513 49.3445C662.545 49.3128 662.567 49.2803 662.589 49.2486L675.373 31.9254C680.103 25.6735 682.42 16.9269 676.937 11.4767C675.162 9.71311 672.878 8.78922 670.324 8.80551C663.986 8.84261 657.723 14.8538 656.476 16.1152C646.87 25.6636 640.752 32.9841 632.811 43.1524L624.844 53.3685L613.001 68.6132C606.738 76.6767 599.926 84.4723 592.772 91.7657C591.352 93.2081 589.863 94.3356 588.331 95.111C584.589 97.0023 581.605 96.8792 579.461 94.7473C579.359 94.6459 579.257 94.5337 579.148 94.4161C578.17 93.3257 577.374 91.4987 576.498 88.5225C575.59 85.4505 575.02 82.2978 574.718 79.1126L574.352 75.1157C574.228 73.7747 574.008 72.4228 573.691 71.1025C572.455 65.9193 569.799 61.185 566.004 57.4125C565.327 56.7393 564.612 56.0923 563.864 55.4887C558.65 51.2457 553.537 49.1355 548.688 49.2106C542.651 49.3119 537.394 52.1117 534.958 56.5311L534.953 56.5284ZM548.753 53.7441C553.204 53.669 557.526 56.1918 560.972 58.997C561.601 59.5046 562.203 60.0493 562.773 60.6158C565.956 63.7793 568.203 67.7653 569.25 72.1414C569.513 73.258 569.702 74.3855 569.809 75.5293L570.411 82.0806C570.82 86.558 572.051 90.9133 574.056 94.9473C574.384 95.6151 574.777 96.2512 575.234 96.834C575.55 97.2348 575.884 97.6085 576.228 97.9506C579.916 101.616 584.99 101.798 590.162 99.2654C592.275 98.2239 594.162 96.786 595.829 95.13C602.619 88.3814 608.968 81.2056 614.843 73.6444L628.45 56.1339L636.417 45.9285C644.449 35.6373 650.437 28.5194 659.711 19.3022C659.711 19.3022 668.931 9.93481 673.705 14.68C677.64 18.5919 674.484 25.5541 671.705 29.2243L658.904 46.5638C650.684 57.1066 642.739 67.8676 635.089 78.8276L633.481 81.1305C632.234 82.9258 632.449 85.3518 634.003 86.8965C634.32 87.2114 634.702 87.4412 635.121 87.6014C637.158 88.376 640.184 87.5055 641.846 86.1427L642.782 85.341C644.642 83.7275 646.443 82.0445 648.136 80.2537C649.92 78.3724 651.63 76.4278 653.27 74.4244L662.619 63.0264C672.79 50.6294 680.526 42.1072 692.219 31.1056C694.649 28.4018 699.96 24.9397 703.997 25.5107C705.073 25.66 706.057 26.0934 706.873 26.9051C708.712 28.7321 708.604 31.6612 707.653 34.5622C706.701 37.4642 704.906 40.3381 703.357 42.0484C686.369 65.0461 673.489 80.7242 652.968 100.746C650.861 102.797 650.071 105.913 651.151 108.633C652.915 113.079 657.156 111.929 661.909 108.489C663.145 107.591 664.307 106.587 665.408 105.524L678.821 92.5656L707.518 64.695C710.775 61.4573 718.302 57.2252 722.173 61.0719L722.216 61.1144C726.366 65.2398 721.344 73.0082 718.076 76.2577L689.712 105.753L666.364 128.19C664.117 130.36 662.478 135.538 664.693 137.739C666.778 139.812 671.192 138.855 673.418 136.931L702.711 112.111C705.979 108.863 713.753 104.897 717.409 108.531C721.333 112.432 716 120.96 712.732 124.209L703.862 133.249C692.19 145.053 680.224 156.563 667.972 167.767C662.021 173.212 655.833 178.401 649.468 183.37C639.969 190.781 629.195 196.413 617.669 199.993C608.696 202.777 599.095 202.894 590.064 200.33C584.387 198.716 579.065 196.087 574.345 192.56C571.323 190.305 567.948 187.388 564.749 184.208C560.943 180.425 557.401 176.284 555.024 172.479C551.423 166.698 549.095 160.216 548.203 153.473L547.444 147.76C546.966 144.111 546.902 140.413 547.278 136.748L550.127 108.407L550.262 99.6807C550.44 87.8882 547.353 76.0894 540.489 66.4659C539.344 64.8579 538.618 62.9604 538.559 60.9886C538.537 60.091 538.645 59.2684 538.957 58.702C540.8 55.3521 544.908 53.802 548.752 53.7432L548.753 53.7441Z" fill="#C67224"/>
<path d="M664.536 24.1136C665.948 24.1136 667.093 22.976 667.093 21.5727C667.093 20.1693 665.948 19.0317 664.536 19.0317C663.125 19.0317 661.98 20.1693 661.98 21.5727C661.98 22.976 663.125 24.1136 664.536 24.1136Z" fill="white"/>
<path d="M659.472 28.3201C661.044 26.7582 661.72 24.8978 660.982 24.1649C660.245 23.432 658.373 24.104 656.802 25.666C655.23 27.2279 654.554 29.0883 655.292 29.8212C656.029 30.5541 657.901 29.882 659.472 28.3201Z" fill="white"/>
<path d="M697.749 176.218L697.921 176.127C709.363 170.002 718.85 160.854 725.355 149.671L727.897 145.299L723.948 143.03L721.404 147.402C715.324 157.858 706.454 166.41 695.756 172.136L695.583 172.228L697.748 176.218H697.749Z" fill="#7F7D7E"/>
<path d="M704.52 189.64C719.553 182.043 737.683 165.362 742 150.596L737.62 149.331C733.7 162.736 716.313 178.594 702.453 185.598L704.52 189.64Z" fill="#7F7D7E"/>
<path d="M596.076 49.3509L600.467 50.5807L601.846 45.7214C605.144 34.0972 611.616 23.634 620.561 15.4611L620.717 15.319L617.605 12.0044L617.482 12.1175C607.906 20.8651 600.983 32.0576 597.456 44.4908L596.077 49.3519L596.076 49.3509Z" fill="#7F7D7E"/>
<path d="M581.447 47.514L586.007 47.6625C586.466 33.7109 599.36 14.0676 611.044 3.86948L608.033 0.46167C595.362 11.5221 581.953 32.1463 581.447 47.514Z" fill="#7F7D7E"/>
</g>
<path d="M20.6143 165.774L64.1381 52.3828C67.8605 42.2177 70.2944 32.0527 71.5829 24.4646C73.5873 14.5859 95.4923 4.85034 104.798 4.85034C112.386 4.85034 114.963 10.1476 117.684 17.4493L175.381 166.06C177.099 170.498 180.535 177.943 187.98 184.386C190.844 186.963 195.425 190.542 195.425 195.123C195.425 202.855 189.841 204.716 178.531 204.716C170.8 204.716 163.784 204 150.326 204C136.868 204 129.424 204.716 120.977 204.716C112.53 204.716 108.521 201.423 108.521 195.839C108.521 187.679 125.415 184.672 125.415 171.644C125.415 169.353 121.836 158.615 118.972 153.461C117.97 151.6 115.679 150.168 112.816 150.168H63.1359C59.4134 150.168 56.6932 151.6 54.9752 153.461C52.1118 157.756 47.3871 169.066 47.3871 173.934C47.3871 186.533 62.2768 188.394 62.2768 196.555C62.2768 201.137 59.5566 204.716 50.2505 204.716C44.0942 204.716 33.6428 204 27.057 204C20.328 204 16.0329 204.716 9.73341 204.716C3.57709 204.716 0.28418 201.852 0.28418 196.698C0.28418 187.679 11.881 188.394 20.6143 165.774ZM67.431 124.684H105.228C108.091 124.684 108.664 123.682 108.664 122.107C108.664 117.812 96.4945 82.1622 89.6223 68.8474C88.9065 67.2725 87.6179 65.5545 86.7589 65.5545C85.6136 65.5545 84.7545 67.2725 83.8955 68.8474C77.596 81.4463 64.1381 118.527 64.1381 122.107C64.1381 123.682 64.8539 124.684 67.431 124.684Z" fill="white"/>
<path d="M279.546 129.408V157.899C279.546 174.077 285.13 179.804 294.579 183.813C301.451 186.963 307.321 189.397 307.321 195.267C307.321 202.425 301.165 204.716 292.002 204.716C283.555 204.716 266.947 204 257.641 204C247.763 204 235.45 204.716 228.578 204.716C220.704 204.716 217.267 201.566 217.267 196.841C217.267 187.249 230.869 187.679 233.159 171.5C234.448 163.34 234.877 129.981 234.877 102.206C234.877 82.7349 234.734 55.5326 234.305 49.3762C232.443 26.7554 218.413 28.0439 218.413 17.0198C218.413 12.2952 220.704 8.57277 228.721 8.57277C243.181 8.57277 259.932 9.28862 292.861 9.28862C321.352 9.28862 336.814 8.57277 347.123 8.57277C357.288 8.57277 360.724 10.434 362.728 23.4625C363.874 29.6188 365.592 40.9292 367.739 51.9533C368.741 56.8211 369.457 62.4047 369.457 64.2659C369.457 70.2791 365.735 72.713 361.726 72.713C355.856 72.713 352.993 66.4135 349.843 60.5435C338.819 38.3521 333.522 32.9117 302.74 32.9117C283.126 32.9117 279.546 35.6319 279.546 51.3806V76.4354C279.546 88.3185 281.551 90.4661 286.991 90.4661C310.614 90.4661 312.189 82.3054 317.63 73.572C319.348 71.1381 321.352 69.4201 324.072 69.4201C329.513 69.4201 331.804 74.0015 331.804 86.8868V128.263C331.804 135.851 330.229 140.003 324.931 140.003C319.205 140.003 316.914 134.992 315.053 130.84C310.185 120.532 307.608 115.521 287.85 115.521C281.694 115.521 279.546 118.957 279.546 129.408Z" fill="white"/>
<path d="M443.029 136.137V102.206C443.029 76.4354 442.886 55.8189 442.313 49.6626C440.165 26.8985 421.553 29.1893 421.553 17.0198C421.553 12.2952 424.13 8.57277 431.718 8.57277C439.879 8.57277 455.628 9.28862 465.22 9.28862C474.669 9.28862 483.689 8.57277 492.422 8.57277C500.297 8.57277 502.731 12.2952 502.731 17.0198C502.731 27.9007 490.561 26.6122 488.7 49.0899C488.127 55.5326 487.984 96.7656 487.984 116.094C487.984 169.21 478.535 208.295 419.119 208.295C375.309 208.295 359.99 185.245 359.99 162.767C359.99 147.734 369.01 131.556 387.049 131.556C401.08 131.556 406.807 139.43 406.807 148.02C406.807 154.034 401.366 161.335 401.366 170.785C401.366 178.516 406.091 185.817 417.831 185.817C435.441 185.817 443.029 167.778 443.029 136.137Z" fill="white"/>
<defs>
<clipPath id="clip0_67_29">
<rect width="208" height="206.222" fill="white" transform="translate(534 0.46167)"/>
</clipPath>
</defs>
</svg>
