<svg width="300" height="150" viewBox="0 0 300 150" fill="none" xmlns="http://www.w3.org/2000/svg">
<g clip-path="url(#clip0_79_2)">
<g clip-path="url(#clip1_79_2)">
<path d="M221.839 54.5196C223.638 54.4911 225.386 55.5115 226.78 56.6439C227.035 56.851 227.278 57.0703 227.509 57.3001C228.795 58.5786 229.705 60.1908 230.128 61.9622C230.235 62.4127 230.31 62.8702 230.353 63.331L230.597 65.9812C230.756 67.7146 231.222 69.407 231.972 70.9797C232.178 71.413 232.429 71.8277 232.75 72.1864C232.816 72.2607 232.883 72.3317 232.952 72.4001C234.465 73.904 236.555 73.9585 238.679 72.8836C239.532 72.4521 240.292 71.8588 240.96 71.1777C243.915 68.1633 246.694 64.9824 249.282 61.6511L254.072 55.4855L257.294 51.3578C260.544 47.1935 262.967 44.3167 266.717 40.5898C266.717 40.5898 270.446 36.7991 272.377 38.718C273.969 40.3013 272.694 43.1162 271.568 44.6015L266.391 51.6154C263.065 55.88 259.854 60.2314 256.76 64.6651L256.109 65.5977C255.603 66.3231 255.692 67.3039 256.32 67.9283C257.062 68.6666 258.684 68.2899 259.493 67.6242L259.869 67.2985C260.622 66.6473 261.35 65.9681 262.034 65.2459C262.755 64.4843 263.447 63.6959 264.112 62.8853L267.894 58.2755C272.008 53.2613 275.137 49.8122 279.864 45.3638C281.113 43.9793 284.222 42.1046 285.792 43.6652C287.28 45.1442 285.621 48.4056 284.372 49.7898C277.435 59.1803 272.602 65.4293 264.161 73.6408C263.118 74.6554 262.695 76.4455 263.726 77.471C264.746 78.4848 267.488 76.9722 268.508 75.958L274.449 70.2213L286.055 58.9489C287.374 57.6387 290.415 55.928 291.982 57.4853C291.988 57.4908 291.993 57.4963 291.999 57.5018C293.677 59.1704 291.648 62.3106 290.325 63.6253L278.853 75.5572L269.411 84.6321C268.501 85.5083 267.837 87.6033 268.733 88.4934C269.576 89.3312 271.363 88.9454 272.262 88.1669L284.111 78.128C285.434 76.8133 288.575 75.2106 290.054 76.6808C291.641 78.2583 289.486 81.7056 288.163 83.0203L284.577 86.6781C279.856 91.4525 275.016 96.1076 270.06 100.639C267.651 102.842 265.148 104.941 262.574 106.95C258.734 109.949 254.376 112.228 249.713 113.675C246.084 114.801 242.203 114.848 238.547 113.81C236.253 113.158 234.098 112.094 232.191 110.668C230.968 109.756 229.602 108.574 228.311 107.29C226.771 105.759 225.337 104.085 224.377 102.546C222.918 100.207 221.976 97.5863 221.615 94.8577L221.31 92.5487C221.115 91.0711 221.091 89.5764 221.241 88.0934L222.396 76.631L222.452 72.9264C222.523 68.1769 221.123 63.5206 218.441 59.5891C218.009 58.9552 217.74 58.2166 217.717 57.4513C217.706 57.0893 217.75 56.7544 217.875 56.5275C218.621 55.1722 220.285 54.5449 221.839 54.5204L221.839 54.5196Z" fill="#FFB700"/>
<path d="M290.245 75.3585L290.543 75.7282C290.612 75.5986 290.475 75.4669 290.245 75.3585Z" fill="#FFCB01"/>
<path d="M219.511 58.4362C220.366 60.3317 221.368 62.5427 221.81 63.4654L221.901 63.6557C223.549 67.1049 224.549 70.8223 224.847 74.6283L225.128 78.1877L225.21 83.7896C225.413 86.5192 225.48 88.5659 225.46 91.3043C225.454 92.0802 225.534 92.9121 225.558 93.3857C225.769 97.4165 228.531 102.353 235.304 101.568C236.089 101.462 236.861 101.274 237.6 101.002C238.34 100.734 239.051 100.386 239.718 99.9601C239.942 99.8196 240.151 99.824 240.288 99.9601C240.401 100.073 240.466 100.276 240.451 100.559C240.416 101.441 240.134 102.176 239.266 103.038C239.142 103.161 239.003 103.286 238.853 103.418C236.876 104.799 236.618 107.144 238.372 108.335L238.375 108.337C241.366 110.161 244.9 110.907 248.381 110.455L248.49 110.442C249.855 110.265 251.201 109.965 252.51 109.55L252.697 109.489C255.1 108.727 257.363 107.592 259.429 106.105L259.534 106.031C263.228 103.375 266.77 100.512 270.141 97.46L286.229 82.8911C287.442 81.7931 288.608 80.4188 289.338 79.2344C289.693 78.6616 289.943 78.132 290.049 77.702C290.469 75.9968 290.408 76.3035 290.245 75.3592C289.799 75.1411 288.999 75.0068 288.723 75.1085L284.211 77.2719L284.093 77.3279L270.742 88.212L269.366 88.6464C269.174 88.7068 268.962 88.6592 268.809 88.5253C266.613 86.5932 267.635 84.4147 270.092 81.9724C270.383 81.6829 270.697 81.389 271.027 81.0908C272.821 79.5543 274.517 77.9073 276.104 76.1567C278.859 73.1204 284.447 67.0946 288.759 62.4113C289.15 61.9878 289.583 61.4495 289.994 60.8639C291.292 59.0075 292.355 56.6626 291.066 55.8951C291.02 55.8669 291.068 55.7849 291.073 55.7245C289.189 56.7574 287.304 57.7928 285.424 58.8282C284.725 59.5045 283.954 60.2417 283.13 61.026C276.113 67.7062 265.406 77.557 265.406 77.557L263.727 77.4707C261.964 75.7915 262.42 74.43 264.006 72.2493C265.025 70.8468 275.382 59.1349 281.727 51.1602C282.616 50.0428 283.345 49.0293 283.927 48.1301C285.554 45.6186 286.063 43.9632 285.85 43.2282C285.763 42.9387 285.689 42.6965 285.617 42.4955C285.171 41.1838 285.041 41.5728 285.071 41.9055L283.964 42.2144L281.501 42.904C275.43 49.8199 263.284 63.6517 263.284 63.6517L259.296 67.6154L258.217 67.8314L256.547 67.9177L256.319 67.9287C254.371 65.9922 255.508 64.4774 257.634 61.4733C259.926 58.2312 264.845 52.301 266.973 49.3466C269.585 45.7222 271.657 43.1397 272.277 40.76C272.433 40.1678 272.514 39.3962 272.472 38.8147C272.65 37.1421 271.052 39.1928 271.228 37.5179C269.517 37.9696 268.282 38.9336 266.773 39.5994C266.364 39.7809 265.938 39.9409 265.477 40.062C263.779 42.3162 261.722 45.0524 259.53 47.9613C253.205 56.3665 245.086 65.2445 242.237 69.0267C242.055 69.2686 241.755 69.6965 241.639 69.971C241.285 70.8117 242.011 72.7094 242.337 73.5867L244.04 77.2975C245.223 79.7483 245.869 82.625 245.838 85.452C245.803 88.2789 245.095 91.0583 243.561 93.3081C242.776 94.1876 241.696 94.0646 242.118 92.69C242.118 92.69 242.17 92.4912 242.257 92.1366C242.429 91.4514 242.55 90.4358 242.574 89.3528C242.677 84.6479 241.615 81.2807 239.343 77.9025C239.339 77.8981 239.335 77.8938 239.334 77.8897L239.312 77.8594C238.48 76.6252 237.421 75.5554 236.19 74.7085L233.285 72.7028L232.372 71.7044C231.637 70.2261 231.611 68.843 231.008 66.3293L230.612 61.2288C230.506 59.8303 229.797 58.5423 228.666 57.6994L224.826 54.8293L222.041 54.3257C222.024 54.3257 222.008 54.3279 221.991 54.3279C219.949 54.4336 218.675 56.5821 219.51 58.4366L219.511 58.4362Z" fill="#FFCE47"/>
<path d="M265.45 92.4199C265.708 86.2649 262.086 79.849 260.148 77.0542C257.339 73.0044 254.571 70.9014 253.517 70.2086C251.929 69.1636 250.403 68.6783 248.671 68.6644C247.951 68.6586 247.473 68.7559 247.123 69.231C246.742 69.7492 246.677 70.318 246.736 70.8139C246.816 71.4888 247.159 72.1063 247.652 72.5777L250.925 75.3014C253.69 77.8199 255.643 80.3163 257.596 83.4526C258.77 85.3371 259.308 86.5745 261.119 90.8201C261.449 91.5916 262.349 93.8597 263.639 94.1031H263.666C264.591 94.0951 265.412 93.3389 265.45 92.4203L265.45 92.4199Z" fill="#FFDC67"/>
<path d="M240.511 103.804C240.437 103.459 240.514 103.082 240.741 102.674C241.21 101.833 242.1 101.31 243.065 101.226C243.677 101.173 244.315 101.169 244.966 101.191C249.012 101.326 253.024 100.351 256.563 98.3977C256.589 98.3831 256.619 98.3728 256.642 98.3542C258.26 97.064 259.854 97.4564 260.504 98.6993C260.615 99.7431 260.358 100.636 259.782 101.649C259.149 102.764 258.006 103.639 256.914 104.349C253.183 106.774 247.702 107.255 243.381 106.162C241.553 105.699 240.683 104.614 240.511 103.804Z" fill="#FFDC67"/>
<path d="M241.132 91.715C243.749 88.3204 242.364 82.9768 240.558 79.7967C236.682 72.9701 230.998 71.8801 229.377 71.6569C228.274 71.505 227.516 72.297 227.88 73.3438C228.243 74.388 228.722 76.1616 228.951 76.8885C230.427 81.5652 231.18 86.1555 231.713 90.8894C231.759 91.2978 231.801 91.681 231.838 92.0272C232.007 93.6299 233.252 94.7741 234.864 94.9457C237.282 95.1686 240.129 93.0143 241.131 91.715H241.132Z" fill="#FFDC67"/>
<path d="M229.055 60.1085C229.492 62.0325 229.243 63.7747 229.054 65.7383C229.054 65.7448 229.053 65.7518 229.053 65.7584C228.961 66.7016 227.869 67.1854 227.103 66.6214C227.051 66.5826 226.997 66.542 226.943 66.4988C226.293 65.9813 225.771 65.3185 225.41 64.5726C224.93 63.5774 224.178 62.5296 223.459 61.78C221.776 60.0236 220.4 58.5482 220.75 56.3131C220.903 55.334 221.728 54.5519 222.724 54.538C223.44 54.5281 224.336 54.7927 225.517 55.4358C226.287 55.8548 226.984 56.4049 227.541 57.0791C228.081 57.7331 228.773 58.8663 229.055 60.1085Z" fill="#FFDC67"/>
<path d="M266.774 39.599C264.153 42.523 261.836 45.2248 259.531 47.9606C254.425 54.0292 249.389 60.2753 241.298 69.5146C240.913 69.9534 239.525 70.703 240.11 70.6792C240.147 70.677 240.746 70.3692 241.564 70.5709C242.138 70.7125 243.185 70.7949 244.654 69.1486C246.427 67.162 248.723 64.9586 250.751 62.2503C254.949 56.6446 258.53 51.6868 263.951 45.7108C264.634 44.9587 265.415 43.9924 266.208 43.0138C267.578 41.3192 269.776 39.8384 271.754 40.5488C271.867 40.5894 272.146 40.7724 272.277 40.7596C272.433 40.1674 272.501 39.5862 272.459 39.0046C272.638 37.3317 271.052 39.1928 271.229 37.5176C269.518 37.9692 268.283 38.9333 266.774 39.599Z" fill="#FFDC67"/>
<path d="M269.863 53.4718C268.431 55.0515 266.995 56.6293 265.565 58.2115L262.681 61.7254C262.033 62.5164 261.364 63.2773 260.69 63.9906C260.096 64.615 259.006 65.8232 258.687 66.0373C258.506 66.1822 258.328 66.2946 258.18 66.3765C258.108 66.4175 258.03 66.3959 257.982 66.3484C257.326 66.7502 256.556 67.0961 256.202 67.6429C256.482 67.6191 256.489 67.7553 256.547 67.9174C256.58 68.0188 256.63 68.1249 256.771 68.2135C256.776 68.2179 256.78 68.2179 256.784 68.2223C258.628 69.3287 261.022 68.0729 262.483 66.4219C265.838 62.6335 268.954 58.7711 272.355 55.0237C274.565 52.5685 276.628 50.0896 279.089 47.8117C279.783 47.1697 280.298 46.6965 281.216 46.1691C282.564 45.3909 284.401 45.3558 283.927 48.1293C285.98 44.7775 286.063 43.9625 285.85 43.2275C285.763 42.938 285.689 42.6957 285.617 42.4948C285.117 42.4172 284.562 42.3718 284.53 42.2785C284.293 42.2635 284.11 42.2419 283.965 42.2137C283.362 42.1036 283.321 41.911 282.406 41.8397C282.338 41.8331 281.625 42.3085 281.551 42.3041C281.475 42.3843 281.123 42.3279 281.046 42.4077C277.552 45.9974 273.321 49.9052 269.864 53.4711L269.863 53.4718Z" fill="#FFDC67"/>
<path d="M283.129 61.0252C284.451 60.4934 286.413 59.7805 287.706 59.4108C288.191 59.2703 288.722 59.3179 289.146 59.5924C289.489 59.8127 289.783 60.1867 289.994 60.8631C291.292 59.0068 292.355 56.6618 291.066 55.8943C291.02 55.8661 291.068 55.7841 291.072 55.7238C289.189 56.7566 287.304 57.792 285.423 58.8274C284.725 59.5038 283.953 60.2409 283.129 61.0252Z" fill="#FFDC67"/>
<path d="M284.21 77.2713C283.115 78.4037 281.988 79.5664 281.318 80.3014C284.828 78.1522 286.949 76.7706 288.463 77.8766C288.807 78.1277 289.127 78.501 289.338 79.2337C289.692 78.661 289.942 78.1314 290.049 77.7013C290.468 75.9961 290.407 76.3028 290.244 75.3585C289.799 75.1404 288.998 75.0061 288.722 75.1078L284.21 77.2713H284.21Z" fill="#FFDC67"/>
<path d="M216.257 55.6462C215.98 56.1498 215.852 56.7742 215.874 57.5047C215.905 58.594 216.27 59.6748 216.92 60.6278C219.396 64.2391 220.673 68.5293 220.608 72.8994L220.551 76.526L219.405 87.9093C219.242 89.5325 219.268 91.1707 219.481 92.7873L219.786 95.0957C220.184 98.102 221.201 100.933 222.81 103.514C224.037 105.476 225.768 107.356 227.005 108.586C228.32 109.894 229.768 111.151 231.084 112.135C233.68 114.076 236.657 115.387 239.884 116.01C243.585 116.728 247.412 116.373 250.991 115.193C255.607 113.669 259.882 111.383 263.713 108.392C266.403 106.293 268.958 104.138 271.308 101.988C276.268 97.4556 281.173 92.7357 285.899 87.9573L289.478 84.309C291.252 82.5368 294.038 78.0435 291.361 75.383C288.88 72.9169 284.642 75.0503 282.863 76.7749L271.067 86.7707C271.06 86.7773 271.054 86.7791 271.05 86.7835C270.934 86.8852 270.774 86.9672 270.606 87.0254C270.399 87.0968 270.202 86.8959 270.274 86.6905C270.376 86.4032 270.528 86.1093 270.693 85.9494L280.137 76.8745L280.187 76.8247L291.646 64.9078C293.74 62.8179 295.899 58.7872 293.305 56.2047L293.288 56.1875C290.857 53.7712 286.839 55.5825 284.76 57.6442L273.164 68.9063L267.224 74.6422L267.204 74.6616C266.393 75.4419 265.828 75.8654 265.426 76.0319C265.248 76.1055 265.056 76.0579 264.934 75.9368C264.856 75.8588 264.808 75.7509 264.806 75.6279C264.808 75.5045 264.841 75.2736 265.041 75.0745C273.806 66.5486 279.111 60.0085 285.811 50.9424C287.361 49.1768 289.634 44.8866 287.1 42.3689C286.326 41.5996 285.302 41.2127 284.133 41.2431C283.261 41.2669 282.367 41.5282 281.53 41.9238C281.378 41.993 281.23 42.0666 281.088 42.1464C280.075 42.6826 279.179 43.3955 278.547 44.0807C274.05 48.3167 270.884 51.7355 266.466 57.1172L265.568 58.213L262.684 61.7269C262.036 62.5178 261.367 63.2787 260.693 63.9921C260.099 64.6165 259.009 65.8246 258.69 66.0387C258.509 66.1837 258.331 66.296 258.183 66.378C258.111 66.419 258.033 66.3974 257.985 66.3498C257.946 66.3066 257.929 66.2375 257.961 66.1705L258.214 65.6475C261.275 61.2603 264.563 56.9594 267.851 52.7405C267.863 52.7277 267.872 52.7146 267.881 52.7018L273.052 45.6951C274.965 43.1664 275.902 39.6287 273.684 37.4243C272.967 36.7109 272.043 36.3372 271.01 36.3438C268.446 36.3588 265.913 38.7902 265.409 39.3004C261.523 43.1624 259.049 46.1233 255.837 50.236L252.615 54.3681L247.824 60.5341C245.291 63.7955 242.536 66.9486 239.642 69.8985C239.068 70.4819 238.466 70.938 237.846 71.2516C236.333 72.0166 235.126 71.9668 234.259 71.1045C234.217 71.0635 234.176 71.0181 234.132 70.9705C233.736 70.5295 233.415 69.7906 233.06 68.5868C232.693 67.3442 232.462 66.0691 232.34 64.7808L232.192 63.1642C232.142 62.6218 232.053 62.075 231.925 61.541C231.425 59.4445 230.351 57.5296 228.816 56.0038C228.542 55.7315 228.253 55.4698 227.95 55.2257C225.841 53.5095 223.773 52.656 221.812 52.6864C219.37 52.7274 217.244 53.8598 216.259 55.6473L216.257 55.6462ZM221.838 54.52C223.638 54.4897 225.387 55.5101 226.781 56.6447C227.035 56.85 227.278 57.0703 227.509 57.2994C228.796 58.579 229.705 60.1912 230.129 61.9611C230.235 62.4128 230.311 62.8688 230.355 63.3314L230.598 65.9813C230.764 67.7922 231.261 69.5538 232.073 71.1854C232.205 71.4555 232.364 71.7128 232.549 71.9485C232.677 72.1106 232.812 72.2618 232.951 72.4001C234.443 73.8828 236.495 73.9564 238.587 72.9319C239.442 72.5107 240.205 71.9291 240.879 71.2593C243.625 68.5297 246.193 65.6273 248.57 62.5691L254.073 55.4866L257.296 51.3589C260.544 47.1964 262.966 44.3175 266.717 40.5894C266.717 40.5894 270.446 36.8006 272.377 38.7199C273.969 40.3021 272.692 43.1181 271.568 44.6026L266.391 51.6158C263.066 55.8801 259.853 60.2325 256.758 64.6655L256.108 65.597C255.604 66.3231 255.691 67.3043 256.319 67.9291C256.447 68.0565 256.602 68.1494 256.771 68.2142C257.595 68.5275 258.819 68.1754 259.491 67.6242L259.87 67.3C260.622 66.6474 261.351 65.9666 262.036 65.2423C262.757 64.4814 263.449 63.6949 264.112 62.8846L267.893 58.2744C272.007 53.2603 275.136 49.8133 279.866 45.3635C280.848 44.2699 282.997 42.8696 284.63 43.1005C285.065 43.1609 285.463 43.3362 285.793 43.6645C286.536 44.4035 286.493 45.5882 286.108 46.7616C285.723 47.9354 284.997 49.0978 284.371 49.7895C277.5 59.0913 272.29 65.4326 263.99 73.5307C263.138 74.3604 262.818 75.6206 263.255 76.7207C263.968 78.5189 265.684 78.0541 267.606 76.6625C268.106 76.2995 268.576 75.8932 269.022 75.4632L274.447 70.2221L286.054 58.9493C287.371 57.6398 290.415 55.928 291.981 57.4839L291.998 57.5011C293.677 59.1697 291.646 62.3118 290.324 63.6261L278.852 75.5561L269.408 84.6311C268.499 85.5087 267.836 87.603 268.732 88.4931C269.576 89.3316 271.361 88.9447 272.261 88.1666L284.109 78.1276C285.431 76.8137 288.576 75.2099 290.054 76.6798C291.641 78.2576 289.484 81.7067 288.162 83.0207L284.575 86.6774C279.854 91.4514 275.014 96.1069 270.058 100.639C267.651 102.841 265.149 104.94 262.574 106.95C258.732 109.947 254.374 112.225 249.713 113.673C246.083 114.799 242.2 114.846 238.547 113.809C236.251 113.157 234.098 112.093 232.189 110.667C230.967 109.755 229.602 108.575 228.308 107.289C226.769 105.758 225.336 104.083 224.375 102.544C222.918 100.206 221.977 97.5845 221.616 94.857L221.309 92.5465C221.115 91.0704 221.09 89.575 221.242 88.0923L222.394 76.6292L222.449 73.0999C222.52 68.3302 221.272 63.558 218.496 59.6656C218.033 59.0152 217.739 58.2477 217.715 57.4502C217.706 57.0871 217.75 56.7545 217.876 56.5253C218.622 55.1704 220.283 54.5435 221.838 54.5197L221.838 54.52Z" fill="#C67224"/>
<path d="M268.669 42.5354C269.24 42.5354 269.703 42.0753 269.703 41.5077C269.703 40.9401 269.24 40.48 268.669 40.48C268.098 40.48 267.635 40.9401 267.635 41.5077C267.635 42.0753 268.098 42.5354 268.669 42.5354Z" fill="#111111"/>
<path d="M266.621 44.2369C267.256 43.6051 267.53 42.8527 267.231 42.5562C266.933 42.2598 266.176 42.5316 265.541 43.1634C264.905 43.7951 264.631 44.5476 264.93 44.844C265.228 45.1404 265.985 44.8686 266.621 44.2369Z" fill="#111111"/>
<path d="M282.103 104.057L282.172 104.02C286.8 101.543 290.637 97.8425 293.268 93.3191L294.296 91.551L292.699 90.6331L291.67 92.4016C289.211 96.6307 285.623 100.09 281.296 102.406L281.227 102.443L282.102 104.057H282.103Z" fill="#7F7D7E"/>
<path d="M284.841 109.486C290.921 106.413 298.254 99.6659 300 93.6935L298.229 93.1819C296.643 98.6038 289.611 105.018 284.005 107.851L284.841 109.486Z" fill="#7F7D7E"/>
<path d="M240.979 52.7432L242.755 53.2406L243.313 51.2752C244.647 46.5735 247.264 42.3415 250.883 39.0358L250.945 38.9783L249.687 37.6377L249.637 37.6834C245.764 41.2215 242.964 45.7486 241.537 50.7774L240.979 52.7435L240.979 52.7432Z" fill="#7F7D7E"/>
<path d="M235.062 52.0002L236.906 52.0602C237.092 46.4172 242.307 38.4721 247.033 34.3473L245.815 32.969C240.69 37.4426 235.266 45.7844 235.062 52.0002Z" fill="#7F7D7E"/>
</g>
<path d="M8.22289 99.8324L25.8268 53.9695C27.3324 49.858 28.3169 45.7466 28.838 42.6775C29.6487 38.6819 38.5086 34.7441 42.2726 34.7441C45.3417 34.7441 46.3841 36.8867 47.4843 39.84L70.8211 99.9482C71.516 101.743 72.9058 104.755 75.917 107.36C77.0751 108.403 78.9282 109.85 78.9282 111.703C78.9282 114.83 76.6698 115.583 72.0951 115.583C68.9681 115.583 66.1306 115.294 60.6873 115.294C55.2439 115.294 52.2327 115.583 48.8162 115.583C45.3996 115.583 43.7782 114.251 43.7782 111.993C43.7782 108.692 50.6113 107.476 50.6113 102.207C50.6113 101.28 49.1636 96.937 48.0055 94.8523C47.6001 94.0995 46.6736 93.5204 45.5154 93.5204H25.4215C23.9159 93.5204 22.8156 94.0995 22.1207 94.8523C20.9626 96.5895 19.0516 101.164 19.0516 103.133C19.0516 108.229 25.074 108.982 25.074 112.283C25.074 114.136 23.9738 115.583 20.2098 115.583C17.7198 115.583 13.4925 115.294 10.8287 115.294C8.10708 115.294 6.36985 115.583 3.82191 115.583C1.33188 115.583 0 114.425 0 112.34C0 108.692 4.69052 108.982 8.22289 99.8324ZM27.1587 83.2129H42.4463C43.6045 83.2129 43.8361 82.8075 43.8361 82.1705C43.8361 80.4333 38.914 66.0143 36.1344 60.6289C35.8449 59.9919 35.3237 59.297 34.9762 59.297C34.513 59.297 34.1655 59.9919 33.8181 60.6289C31.2702 65.7247 25.8268 80.7228 25.8268 82.1705C25.8268 82.8075 26.1164 83.2129 27.1587 83.2129Z" fill="#111111"/>
<path d="M112.953 85.1238V96.6475C112.953 103.191 115.211 105.507 119.033 107.129C121.812 108.403 124.187 109.387 124.187 111.761C124.187 114.657 121.697 115.583 117.991 115.583C114.574 115.583 107.857 115.294 104.093 115.294C100.097 115.294 95.117 115.583 92.3374 115.583C89.1525 115.583 87.7627 114.309 87.7627 112.398C87.7627 108.519 93.2639 108.692 94.1905 102.149C94.7116 98.8479 94.8854 85.3555 94.8854 74.1214C94.8854 66.2459 94.8275 55.2435 94.6537 52.7534C93.9009 43.604 88.226 44.1252 88.226 39.6663C88.226 37.7553 89.1525 36.2497 92.3953 36.2497C98.244 36.2497 105.019 36.5393 118.338 36.5393C129.862 36.5393 136.116 36.2497 140.285 36.2497C144.396 36.2497 145.786 37.0025 146.597 42.2721C147.06 44.7622 147.755 49.3369 148.624 53.7958C149.029 55.7646 149.319 58.023 149.319 58.7758C149.319 61.208 147.813 62.1924 146.192 62.1924C143.817 62.1924 142.659 59.6444 141.385 57.2702C136.926 48.2945 134.784 46.094 122.334 46.094C114.4 46.094 112.953 47.1943 112.953 53.5641V63.698C112.953 68.5043 113.763 69.3729 115.964 69.3729C125.519 69.3729 126.156 66.0722 128.356 62.5398C129.051 61.5554 129.862 60.8605 130.962 60.8605C133.162 60.8605 134.089 62.7135 134.089 67.9252V84.6606C134.089 87.7297 133.452 89.409 131.309 89.409C128.993 89.409 128.066 87.3822 127.314 85.7029C125.345 81.5335 124.302 79.5068 116.311 79.5068C113.821 79.5068 112.953 80.8966 112.953 85.1238Z" fill="#111111"/>
<path d="M179.076 87.8455V74.1214C179.076 63.698 179.018 55.3593 178.786 52.8692C177.918 43.6619 170.39 44.5884 170.39 39.6663C170.39 37.7553 171.432 36.2497 174.501 36.2497C177.802 36.2497 184.172 36.5393 188.052 36.5393C191.873 36.5393 195.522 36.2497 199.054 36.2497C202.239 36.2497 203.223 37.7553 203.223 39.6663C203.223 44.0673 198.301 43.5461 197.548 52.6376C197.317 55.2435 197.259 71.9209 197.259 79.7384C197.259 101.222 193.437 117.031 169.405 117.031C151.686 117.031 145.489 107.708 145.489 98.6163C145.489 92.536 149.138 85.9924 156.434 85.9924C162.109 85.9924 164.425 89.1774 164.425 92.6518C164.425 95.0839 162.225 98.0372 162.225 101.859C162.225 104.986 164.136 107.939 168.884 107.939C176.007 107.939 179.076 100.643 179.076 87.8455Z" fill="#111111"/>
</g>
<defs>
<clipPath id="clip0_79_2">
<rect width="300" height="150" fill="white"/>
</clipPath>
<clipPath id="clip1_79_2">
<rect width="84.1293" height="83.4102" fill="white" transform="translate(215.871 32.969)"/>
</clipPath>
</defs>
</svg>
