<?xml version="1.0" standalone="no"?>
<!DOCTYPE svg PUBLIC "-//W3C//DTD SVG 20010904//EN"
 "http://www.w3.org/TR/2001/REC-SVG-20010904/DTD/svg10.dtd">
<svg version="1.0" xmlns="http://www.w3.org/2000/svg"
 width="350.000000pt" height="350.000000pt" viewBox="0 0 350.000000 350.000000"
 preserveAspectRatio="xMidYMid meet">
<metadata>
Created by potrace 1.14, written by Peter Selinger 2001-2017
</metadata>
<g transform="translate(0.000000,350.000000) scale(0.100000,-0.100000)"
fill="#000000" stroke="none">
<path d="M1180 3414 c-92 -94 -90 -92 -159 -189 -119 -167 -201 -349 -216
-477 l-7 -58 41 0 c40 0 41 1 41 33 0 82 85 288 172 415 53 79 140 184 194
237 l51 50 -26 28 -27 27 -64 -66z"/>
<path d="M2213 3321 c-60 -23 -120 -71 -228 -183 -130 -135 -200 -217 -361
-423 -13 -16 -93 -120 -179 -230 -201 -259 -202 -259 -323 -395 -152 -170
-217 -219 -287 -220 -17 0 -41 7 -53 16 -45 31 -83 141 -97 279 -18 172 -52
259 -138 347 -142 145 -296 186 -436 115 -57 -29 -101 -84 -108 -135 -7 -50
16 -125 56 -184 46 -69 89 -171 117 -278 25 -96 24 -337 -2 -565 -36 -323 -37
-369 -8 -590 8 -63 61 -212 101 -283 92 -164 303 -371 473 -464 179 -98 433
-132 633 -84 211 50 475 188 682 357 40 33 171 144 200 171 17 14 40 36 53 47
87 75 316 295 542 521 230 229 270 274 297 330 61 127 49 217 -38 274 -71 45
-194 20 -299 -63 -25 -19 -47 -38 -50 -41 -3 -3 -59 -50 -125 -105 -66 -55
-125 -104 -131 -110 -22 -20 -120 -104 -169 -144 -48 -40 -75 -51 -75 -31 0 5
55 63 122 127 410 395 802 804 845 880 54 96 56 184 6 243 -60 71 -153 83
-257 31 -69 -34 -77 -41 -409 -363 -360 -349 -465 -450 -487 -465 -21 -15 -40
-10 -40 10 0 7 60 73 133 147 189 194 334 356 455 509 90 113 120 151 142 180
14 19 32 42 40 52 54 66 142 192 165 237 105 203 -46 365 -250 266 -47 -22
-95 -64 -226 -194 -202 -202 -224 -226 -475 -530 -156 -188 -246 -284 -263
-279 -13 5 86 148 248 359 240 311 384 510 413 568 51 102 45 207 -16 267 -44
45 -120 55 -193 26z"/>
<path d="M1338 3218 c-132 -139 -252 -363 -283 -530 -6 -34 -5 -38 13 -38 11
0 27 -2 34 -5 11 -4 24 24 52 108 20 63 59 152 85 199 46 82 140 206 194 256
l25 23 -23 25 c-12 13 -26 24 -30 24 -4 0 -34 -28 -67 -62z"/>
<path d="M3164 1033 c-97 -169 -240 -316 -396 -407 l-47 -27 16 -35 17 -34 45
27 c168 96 332 263 430 435 l32 56 -23 16 c-34 24 -45 20 -74 -31z"/>
<path d="M3420 968 c0 -23 -52 -118 -99 -183 -55 -75 -186 -206 -271 -272 -69
-53 -164 -115 -192 -126 -23 -8 -23 -29 0 -58 l19 -22 62 37 c252 154 483 397
547 578 14 41 13 43 -33 53 -25 5 -33 3 -33 -7z"/>
</g>
</svg>
